<mxfile host="65bd71144e">
    <diagram id="PCUlZCbqkJhh2yZWfRsj" name="第 1 页">
        <mxGraphModel dx="1119" dy="779" grid="1" gridSize="10" guides="1" tooltips="1" connect="1" arrows="1" fold="1" page="1" pageScale="1" pageWidth="827" pageHeight="1169" math="0" shadow="0">
            <root>
                <mxCell id="0"/>
                <mxCell id="1" parent="0"/>
                <mxCell id="13" value="" style="verticalLabelPosition=bottom;verticalAlign=top;html=1;shape=mxgraph.basic.partConcEllipse;startAngle=0.762705336833058;endAngle=0.5931401935198142;arcWidth=0.3;pointerEvents=0;fontFamily=Helvetica;fontSize=12;fontColor=#000000;fillColor=#fa6800;strokeColor=none;gradientColor=#FFB366;gradientDirection=west;shadow=1;" parent="1" vertex="1">
                    <mxGeometry x="320" y="240" width="200" height="200" as="geometry"/>
                </mxCell>
                <mxCell id="14" value="" style="verticalLabelPosition=bottom;verticalAlign=top;html=1;shape=mxgraph.basic.rect;fillColor2=none;strokeWidth=1;size=20;indent=5;pointerEvents=0;fontFamily=Helvetica;fontSize=12;fontColor=default;fillColor=#FF8000;gradientColor=#FFB366;strokeColor=none;gradientDirection=east;shadow=1;" parent="1" vertex="1">
                    <mxGeometry x="320" y="240" width="30" height="200" as="geometry"/>
                </mxCell>
                <mxCell id="15" value="" style="shape=image;verticalLabelPosition=bottom;labelBackgroundColor=default;verticalAlign=top;aspect=fixed;imageAspect=0;image=data:image/png,iVBORw0KGgoAAAANSUhEUgAABBoAAAL2CAYAAADvivWcAAAACXBIWXMAAAsTAAALEwEAmpwYAAAgAElEQVR4nOzdaZCl132Y9+ec87733l5mMJjBDGYADPaFBEiRlLXRpCnJtiJZTCRXvKfsJE5iSyIpABJpySm7LJdjl112pcqVssqSSImSSMmRYymWbMWyYyeOK7E/uBzHWxxaUsiSDIJEIGyzdN/7vuf88+F29/RgAHDBBXqZ5/cBmJ7eXnRfVN33uef8T4oIJEmSJEmSVqE76AuQJEmSJEnHh6FBkiRJkiStjKFBkiRJkiStjKFBkiRJkiStjKFBkiRJkiStjKFBkiRJkiStjKFBkiRJkiStjKFBkiRJkiStjKFBkiRJkiStjKFBkiRJkiStjKFBkiRJkiStjKFBkiRJkiStjKFBkiRJkiStjKFBkiRJkiStjKFBkiRJkiStjKFBkiRJkiStjKFBkiRJkiStjKFBkiRJkiStjKFBkiRJkiStjKFBkiRJkiStjKFBkiRJkiStjKFBkiRJkiStjKFBkiRJkiStjKFBkiRJkiStjKFBkiRJkiStjKFBkiRJkiStjKFBkiRJkiStjKFBkiRJkiStjKFBkiRJkiStjKFBkiRJkiStjKFBkiRJkiStjKFBkiRJkiStjKFBkiRJkiStjKFBkiRJkiStjKFBkiRJkiStjKFBkiRJkiStjKFBkiRJkiStjKFBkiRJkiStjKFBkiRJkiStjKFBkiRJkiStjKFBkiRJkiStjKFBkiRJkiStjKFBkiRJkiStjKFBkiRJkiStjKFBkiRJkiStjKFBkiRJkiStjKFBkiRJkiStjKFBkiRJkiStjKFBkiRJkiStjKFBkiRJkiStjKFBkiRJkiStjKFBkiRJkiStjKFBkiRJkiStjKFBkiRJkiStjKFBkiRJkiStjKFBkiRJkiStjKFBkiRJkiStjKFBkiRJkiStjKFBkiRJkiStjKFBkiRJkiStjKFBkiRJkiStjKFBkiRJkiStjKFBkiRJkiStjKFBkiRJkiStjKFBkiRJkiStjKFBkiRJkiStjKFBkiRJkiStjKFBkiRJkiStjKFBkiRJkiStjKFBkiRJkiStjKFBkiRJkiStjKFBkiRJkiStjKFBkiRJkiStjKFBkiRJkiStjKFBkiRJkiStjKFBkiRJkiStjKFBkiRJkiStjKFBkiRJkiStjKFBkiRJkiStjKFBkiRJkiStjKFBkiRJkiStjKFBkiRJkiStjKFBkiRJkiStjKFBkiRJkiStjKFBkiRJkiStjKFBkiRJkiStjKFBkiRJkiStjKFBkiRJkiStjKFBkiRJkiStjKFBkiRJkiStjKFBkiRJkiStjKFBkiRJkiStjKFBkiRJkiStjKFBkiRJkiStjKFBkiRJkiStjKFBkiRJkiStjKFBkiRJkiStjKFBkiRJkiStjKFBkiRJkiStjKFBkiRJkiStjKFBkiRJkiStjKFBkiRJkiStjKFBkiRJkiStjKFBkiRJkiStjKFBkiRJkiStjKFBkiRJkiStjKFBkiRJkiStjKFBkiRJkiStjKFBkiRJkiStjKFBkiRJkiStjKFBkiRJkiStjKFBkiRJkiStjKFBkiRJkiStjKFBkiRJkiStjKFBkiRJkiStjKFBkiRJkiStjKFBkiRJkiStjKFBkiRJkiStjKFBkiRJkiStjKFBkiRJkiStjKFBkiRJkiStjKFBkiRJkiStjKFBkiRJkiStjKFBkiRJ1/m9P/iPYh4JgFKCVCClxN/4I78lHfClSZKOgBQRB30NkiRJehP9pz/2f8T2YsGlOuHFtMl2fwuQ6OuC3AZS6VkAkTKlJIY20FqjT4mO4ES9TB4W3NKPPHbnSX7g295lgJAk7TE0SJIk3ST+4A/+/Xh+O3hp4xyQiVxouVBTYhwbJWVKKbTWiASJQkQiIkgpSDlIEfR1YCSRojKtl9loV7h9c8bXPPYg3/E1txsdJOkmZ2iQJEm6CXz9X/knUU/cxUihtIEYBwoDs7xNl0bGcWRoPZWO2PlnoRBjIudM0IjUSCmIVpj3a2ylQiGRUzAsKn1dcFd+jt/3rjv4ve9+yOAgSTcpQ4MkSdIx9tUf/VRcGkam4yX6lKjRsbVowHLuQmakZCilMJ1OmfUdbRihNlJXGFpQUialxDiOyxUPVHYrQpBpCbq2/JpjmvDS9pz7Tq/zH739PN/xzpMGB0m6yRgaJEmSjql3/IV/GOP6rTz7/As8//xv0Pc980WjLx1jq8stETT6vjCZTDixscb6dMrpkyeYlZ5hmFNrpe97Wh2ISJSuo+1EBYCdmZGkfU8pI8G4dYVb8oKHz63zvrfey+99x20GB0m6SRgaJEmSjqELf/YfxzPPXyEP28wmmQWFWjryZEoatklpOXsBICKIWkk56MncemKTc2duZa3vyG2AqLTWKN3kusiwX6QMNLrWyKkRpWfOhCtbC27tK4/d1vG+h87w+9953uAgScecoUGSJOkYeeTDH49fjdPU6a3Qgn6cM+tgTMG8QaPQ73xsKYWIWMaDqKQEETCOI6dPbnLulk1Orfd0ib3QMNRG5sbnj5EyKSAxQqtUCkO3Qc0zUh3oF89zplzh4pl13nPfef7Q19xpcJCkY8rQIEmSdEycfPJn43K/QTfpGBbbdGXKpEyoizklLecrLCIgMplrKxr2i5SIBMN8zsm1CedPneD0yQ1KSdShkXO+9sGpQeQbvkYphVorcO19NUOtlRbByTbnznX4hkfv4L/8ursMDpJ0zBgaJEmSjoHJR34xhnyCblpoV59lY9qzaDCMia7rKDlo8zklw5g7Mtfu71NKtNZIFBpB6TuGYSC1yrTAXedu58ypTer2Nl1JBDfGhf3DISNBisYkBSkGFnUk+jUWTBkjUUrPpF6l33qOuzcS7330bv7oe+42OEjSMWFokCRJOuLK9/xCtMkJpl0iti4zmUyYR5DzcssDpaNFJrfKLAcDXNv8sLN1ouQeciIFjHVB13W0SIyLgc3ZlDtvu5UzG1MSjdZ4hc0TuzK5K4yLgVISpEaLWM6EqJBTYt7NoAUlQW4D/bjFucmC9zx0jie+4UGDgyQdcYYGSZKkI+rRj3wi/l07R6ydWK4QGK+Q8oQ5EwagL0G0OS0SuVujtUZuIwCp5OUQyKikyETaub9vjb6DoY7kMiWnnvnVK5w7ucEDd50jRSO3oCbgupUNNw6JjK5j0ZaRYRJBqQM5RobSEXSMuaeSd94/Mp0/z9myxTe+/W6+870PGBwk6YgyNEiSJB1Bb/3QD8avzO5nnJ5isrjCWpozH2Hop0CmawOw7/jJnRDQUiHtPf9LXL82Yfl2ysv5Cil3tJroEsS4xan1NR6+/z7a1ctEyaSSWSxGMsvtGbUO5K4QdTc65Jcdf9mIBDkqkPa2WbSUCQoAJSosXuDstPHuBy/w/b/VFQ6SdNQYGiRJko6Y+x//WDzTnebK2jkYB07GVVqtbPcbxGQG8ytM2xyiY8wFCLoYCZbzGdLO07+01xuuH+qYctAIcupoLNctpLpg1hXuvOMC50/MuLo1JxKU0pNJy0GPrdFNloMgU0CJRiIIEi1lxpypKdO3RopGolJiGSVqKoxpsrzerqcttinzF7hjNvLue0/z/f/BYwYHSToiDA2SJElHyD0f/Gj8Wn+B2cmTbI8DaVyw0fcsFgtyP2F7WNDnRA4gXr6iYGeFw8tPi9h5eznEEcrubIdUiJSW8xXaAG3g5OYmD58/uzdAEjI55+Wch7T8msvnl21vFcXS8lDM2NtysXx/ujYsguWKisxizHSzGQONsV5hurjM+W7O1913ge//lkcNDpJ0yBkaJEmSjogL3/VD8bnNR+gmU8btF5h0QdCRc6GNI5NSGWOkMaNRyLS9bRKREkQm0Yj06s//UkCflkdRRumIlHZWNVRaHUgpeMsdd3Lm1tPEsGCx2CZ3hZagUGhjXR6dmdretgiAHI2uLVc4jKnsXFOm7Z5SQaNrI31USsqMZObRMfQ9LUG7eon1usWZWcdX3X0rf+pbHzY4SNIhZWiQJEk6As5/8KPx7Ppd1H6TjXFgjIHJWmEYKqktBzu2GCl9x1h3VwfEclVBZGD/ffmNz//2r3zo03KFAjnTdlY3lFKodaC1xoVTJ7jzzDm6NhJUuumERR1JLe0cm9n2fc3dlRPLFQylQU153/fNtAQ5lt87Me6sfVh+gUg9kXvoC4txJGoltl/i/Ebm0XPrvOetF/m2h08aHSTpEDE0SJIkHXIXHv9EfG52J+TCRt4mbVfaZMKiLUitMsmFoGMoE2prFAa61mgJYudGf3cbQ5B5jQUNy49NiYhYbolIy9kLOXWQl9slSpvzyMV7ODWbUttAJYicyJEpKdPaCGm5LSIHe9dRc4bIZMadqLBcKQHQKDQ6aoZKhTYyozCJoI2VMQW1m9C6KYuUYZizFiMnmfPQmSnf8s77+daHNw0OknQIGBokSZIOsTNPfDIuTc4ypJ6NaSa2L1GZQE6MbWBtNqMuGkOt9NMJw7Agp1jGhJfNaIi8MzNh/+DHfU8F42W36Ym2N38hUSAnIqC2qzxw+x3cdfpW2rjN1XFBmkwoLZNqQGpEatd/bTKxs5IhRbvueyzla6dQ7Mx9yDSoI5lKzpmaEothYCxTujJhHEdSHZmlgfV6hYdvv4X3vv0+ft9bTxgcJOkAGRokSZIOqfzh/yli/SwsXuI0cxbjyKI7wSIFszxSx21antLShI5KXrzItCsMrWfM/c5MhkqK5akPpAYsj67c9UqhoaTduNAoJFIqy60ZLAc9DmXOrXnCfWfOcOLEGltpJCiUlukaQKPmtrOa4tr3yjFSAmpafq8gQ3Q7F9JIjHQNuiiMJIYCiwKkBHVkGkG3M0CyBtB1tDRlQWII6AhOjC/xyObAf/j2u3j/Oy8aHCTpABgaJEmSDqH8J/5x5DpnfbxEy5kreZ0cMGtbjKk74IvLML/MVz32MNOUGIa6ExXajSdavPEXs/PvtpxKkRotF9o45/4zm3zTo3fyh9/mlgpJejMZGiRJkg6Rt37kx+Op7jxb9KQ6LLdBUGg5LecaRNBeYZjjm+pQhYbrRcqM0Vib9NTty3TzSzx89gTvffQe/tBXnjU4SNKbwNAgSZJ0SNzz4Z+KX4vbyP2USb0KNIYyoVDoYiAiqKWD1r7g13pDHbbQkK7NnoiUSRRGRmqD1E8Z5gv67Zd47PYZ73vb3fzhd54xOEjSG8jQIEmSdAjc/d0/Ek9NL9Jmt1CGbSZtTkvQUgEgx87pDOkLnxrxhjtMoSHtiy473zci6KcztiqMUej7nhwj4+XnYbzCO25b410PnOcD73GGgyS9EQwNkiRJB+zshz4Rz25epEvQD5fJOTPkHoDURgAqmZQSOerekZUH5hCGht1jOxON1hqkArmQSZS2gJxY5J4hTYn5wKxd5u6Twdc8cIYn33u/wUGSVuiAJwlJkiTd3O76wMfi2Y0HgAm5XmaSKkME0NOAwvIV+lx2j4YsxEHPaDhsIsNeKsj0fVnGjzrS95kUlTpWcsnk0hin62xHx6cuX+bT/+wp/vGnno6vu/8s3/uNDxscJGkFXNEgSZJ0QG77zo/G8yfvJ5eeNG6R0/KV+IggpURwbfVC3rmTXj51cxjkq1zY8l8tKF0igHlrpNzREeRo5DbSSk8NiDKhRhDDgkm9yl0bmbfcvsaffv9jBgdJeh0MDZIkSQfg3g/8cPzayUeJMqG/+gwnponLrWfo1sh1wTQWtJQZyGSgj0ZEMKR80BsnaDmTD3FoaK3RdZlGYogM/ZRoI91im/VSqVSiJUgTFtExlo4WiRxz1toWZ8o2X3nXLfzJ97/N4CBJXwZDgyRJ0pvs3Pf+tbhSTnK1bJCjMW1bJBpDntAoZCo5GkEmUgKCHCOQieVmigO9/t3Q8M5H7mdzMmG+GJenPaQg0ZY38W+w3e8QL/u73bcjQdodDrl3OY0UO++jUXbmSLaUaXTUnGhkGBds5Mot7TKP3bHBn/ud7zQ4SNKXwNAgSZL0Jirf+4vRpicpbc6kDQCMuSznMURQYqSlvLNCYN+t84GuFLjeYQgN+y2jwm58aERaDofMATkahUpNUOmpqaOmQolKiZESjUQlA5XCIk8YS8cwDGxOMrNxm37+Iu+8+zR//ne+3eAgSV8EQ4MkSdKbpDz5t6OtnSK3kS7me1Fh9wjLFDs36mnfKQo7T9XiEN3ivlZogAZvcGjYDQsvtxca9m0uSVw7/nL599fet/yZLt+fo5EDaoaRRDfpqcNIHRPT6ZTFpd/gZDfnbfdd4Jveehffev/6IfqNSNLhYmiQJEl6g73lI5+MT7XzMF1nEleYjluMqWfMy8CQowLLG+Ga0nItQ8ShWsWw32EIDTtXsrc9Yv+2CXbnRQA1551ok3dWMIyUCFpK1JQZc94LE8vVDSMlB62NEB0pTxmjYyzQWqWOC07OX+Bd953lmx67k/c/dNLgIEkvY2iQJEl6A933xE/EU+kssbZJjjmFkVQblW65kiG1vdDQ0nK7xN7KBvLOTfXy7w6Lgw4N+0MC3DibAV6+EiRDZBLLkJBj92e9/Ly9jwFSNIhK7gpER2sQdaT0mTF3DGS6lFm8+Cwn2OIrLt7Gux+9yB947BaDgyTtMDRIkiS9Qe77np+Mz8QFmEw4yWWiDSz6NYbWUxjpWqUlaOnajIbdpf7Xlv9f/1r9YXDQoeG1fiIvDw3LVQpBkHa2qeTlwEeurWDIO19t+ZGZlCfMa1BJrPWFacyp25dJpSP6NS7XjslkQkSwuHqZW7qBt5zted+DZ/j977zD4CDppmdokCRJegNc+K4fis/1dzA9dTsMlyhtGyIztkItu8MI215ogGszGoDr5gzAq88lOAiHITTAK8WGG1c6wHL+QtuZexEp0xLk3Rmb0VieNRF7oWFsQT9do9ZKbXMmeWc7Sw0igjFPiQhaKdSA1II0XOKWPOe+M+t85QMX+I6vuWBwkHTTMjRIkiSt2IUnfjw+t/YABdioLzKPkflkk0zH5jDSYoshd3uBIbflPIb9x1m+clRIO8HhcB5vGTnI8SaHhrQTFmL/oMe2t+ohbljB0MjUvaiwGx5gNz4sP4YY6UtQU2YRPZUJPYU8VkoZaYurTPvCSGERhVrWGFtmURecTHMe3tzmt929xh/8ek+qkHTzMTRIkiSt0Jknfyqem90OZKZtvjzJIO0GhGVUOEwnSHw5IiXSYouveOheNicdY6vLm/pIpJSgHf/nl7snVuyujLg2TwPq0Eh5AjTObsJvfeg2nnz37Uf8ty5JXzxDgyRJ0oo88uGPx1Nxiu3+BABdDAD7Vioc59CQiYibJjTs9/KZESkVajQomVTnrI2XuXs9+LoHz/NH3/fwEf/tS9IXZmiQJElagVs+8jfjSkzpuo5rz692To/YmQ+QYjlnwdBwvKW0PDOkJaipg1Qobc5a3eJkH3zDW+/iyffcecQfBZL06gwNkiRJr9OJj/ytuNydJKdM1xakNl4fE1LbmSFgaLgZRATkBCUzRCZyodUgtUZfEt2V57htMvDeh2/nw7/9LUf80SBJNzI0SJIkvQ7dh/9OpH5GqQsyjZEEOe0b5rizsH5fbDjqDA03HqO5fGP5Oy6lp7XG2ColQS5Qa4XUQ+5YNOhTkLZf5Exf+c0PXeCP//b7DA6Sjg1DgyRJ0pfh7d/3k/Gv43boT9KNL7ExXiX1PdtpSo3YOxkiUrp2bGVkWk4HfmrE62VoeG21Bn3fkwJqm5MJSikkMvOxMvZrjONI6XtKBHnrJU5zmfc8dJY//jseMzhIOvIMDZIkSV+iez7y1+KprUI9cZ6UgllcZZoaVwaIbkaKSo56/WyG4xQaKKThyk0cGjLQXv29eblypdUKqUBODK3S50IhWNSR6aQwjpVFLaR+jbbYYjJc4uyk8ra7buPPfptbKiQdXYYGSZKkL8F9T34sPtPfTVcKfQraYk6ZFOZjkMqE1HZWL6QKXAsNx4mh4XqRbtxCkXOmjkEuUwagtUZfMm1c0HeQ6kBHpaYJ29HTyhRSoy3mTMYFZ/qRxy5s8O6Hz/Ltj54zOkg6UgwNkiRJX6T7v/cn4tP9neQEXauUaLQELS1fwc4NSG3nOMvrbz53316eR3DEZzWkjphf4u0P3sPJ2YSxBjV2X8lvxz40XJvP8CorG9Lu73h3AOj+j8k7n99ItL3HyHL1S0cjQ+pYzLeZlsat/cB9J+Cb3nE/3/7W0wYHSUdCd9AXIEmSdBTc+8TH4tf7O6DbYLZ4jiBTUybS8t4vR6XQiICaAQrwCjfckZfzIXWENV5z+0Rk0l5sahTq3mkjjUbQUdMyKpQ00rWBrjWgEinTqKSNdbZG2KqNl17Y5tP/4N/wj/7VenzVYw/yBx67xUeQpEPNFQ2SJElfwMUnfzqenl0gcmK9Lai1XhcZdoc97h1b+bLTJW5YWn/UpQ4Wl3nbA3fflCsavmhpGSLSvsdD7Pzd/hUPy49ZrnDIBGOM9JM1todEi45J15PGq1CvMu2C+2bw2776UX7/Y5sGB0mHkqFBkiTpNVz84Mfj87c8yBCJSWyxMbzIS91pMuO10yRYbp+oaXmsZYllfIj0Sscg7hx3eZS9QmhopOV8hpsiNOS93/ur/pem5baI5cqXjt0VEJmRRKUELNc3FFrqaBQiBSUaOUZolVISRGExQup66AtDq8xaR1x9hofOdPyO3/Qgv+exMwYHSYeKoUGSJOlV3PvEJ+Pz3Vm2+yklVSYx0tWB7TxZzlvYO8JyNyjsrnCAG29B998LHvHnXzd5aEiR91YmfDEiXb9yAdgLFcDOTI/deQ7sHIs50BiZTDrIhTY2xgH6vmebwrQU6vaL5Pkl7j+zxm97x4P85+8yOEg6HAwNkiRJr+D0k389XuhPk1JiGtvkFNTSsx0963VruXWCsm/IYyUHtMSrDINcHmu5u1f/KEu5J+aX9kJDbVCDmyY0fPGWqxh2t0QQaWd46M7QRyCzs4Jhd0RoFKIV0qSjlmDeFpSolBr0kZjkwlYKWiSGNCH3U4btLcrV53nr2Z5veOQ8f/hrLx7xR5iko87QIEmS9DIbT/xcXJ2cZNIXJgSMA/M20rqOrp+Qt6/S6Gh534yGYG9P/pE/VeILMDR8aRJtL0JB3gtRe+/fmc+wlCm558p8i9x39H0PdSRqo+RMG0Zq1+hLTx0Tiyjkyc7RmJdfoB8u8dC5k3z1Qxf40LvvMDhIOhCGBkmSpH3Kk78Ybe0UkzJnun2ZOkKsn2I7go6BfrzKkNZ39uDHvuMJEzUtX8PeGw6574byOA2D3A0Nj91/kZOzCS3STR8abpi8sbu1IvJ1WycAcozLFQ7srHfYt8KB1Eit0pVE1yC1oEZizB1jzkQptDYwaQsm0UgtMUQw9hNq17OoPXUYmY6XePiWgffdPeU7v/GdBgdJbypDgyRJEnDvH/vv49fSWSJ3TOs2hQVj7qj0lGiUGGgpM6ZCucmfP7XcURZXeOz+i5xYmzAODXLZiSkNn1++Wa4/YvPaNp7lCSBXhoGaMudvmfC1d53gT3/9nQYHSW8KQ4MkSbrpPfjEj8Rn8znS2knaOBJUWsp7g/ng+tMjjvqMhdfL0HDAUtt3hOqNsYGWyDkTEdQMbdhm1ra5dzPz0JmT/Mlve+wmfwRLeqMZGiRJ0k3tvu/58Xh6dicLJkznl1mbZK4EOysXoK+VmpdvZ6CvwXi8RzB8QYaGA/aybRm7P3dYnnAxNpjkRG6VlqB2E0YyDJWuBec2XuIrzq3zZ7717QYHSW8IQ4MkSbpp3fXEx+PptYu0mqANnJx2zIdKywDXnxKxtyzdFQ2GhkPkxtNNMi1BnwtpGKgENffUrmdoAbUxSQOb7Sonh5d42z3n+W++/W03+SNa0qoZGiRJ0k3pvg/9cHxm7QHS2km6refY6CqXxkz0a5RxpIuBlq6tZMhRAfa2VNzMDA2HWyqZNlYyBXKiUaltQUkwm/ZsbU+JDKUkUl2QFy/ylnMbfPM7H+I/fmTD6CDpdTM0SJKkm865D/5YbG3ezuV8glQH1tmipGCeZ4xkSq2UqIaGV2FoOMRSo6TMWIMWhZwzKQ+UNMK4IEeC/jRXx5HWd1QSk5wo8yv08xd5+MyMb3/323j/g2sGB0lfNkODJEm6qdz5XR+Nz556mL7N6XaKQW3QCEqGFI2IRHD9IIa9JerXDeK7ORkaDtZrHpma2s7jtCflCYu6oKRKyUGiYxiXwyNLbrQYCTI1ClGWUWLYvsJ0+0W++e138QPf/KCxQdKXpTvoC5AkSXqzbH7gk7E49QAElJTo65xFJGK6QQIYtulSsEhBZWclQ4u9G7tIkAO8jdahtDskMidabRAD3c68kSEyER0tT4h0GerAep9o8zlRpox0bI2Nbv0U42SdX/rUs/zbpz4Xv+drH+F3PXbW4CDpS+KKBkmSdFPoH/9bMW6cAuZM2nDt2EpuXJ3wmq8Yi5oK/bjFI3df4NTmmisa3mTLkybaF/5A2IsPy8d5hsi0vCDHcgtQCWjp2v8HiRFy4urOl9+cv8TvftddfPf77jU2SPqiuaJBkiQde9OP/FKMG2cgFqyXCuPAkKdUegojXRsAGHNPI5Np5KgEmUhp57SJuO70CemgfKmRASBHI1OBRmuFljI1Zca8jBYlGiVGCgMRiUl01MkJrnYb/Mw//ywvXZ3Hn/iWR4wNkr4ohgZJknRsvf1P/kz8m60TRD+lry/QRdBaT8s9AIWRFNDoiNxIERT2vwK8/NN+RgYdPsu5CzfYN0skUqNFAjJBJsdIYhkb9n/+kHoiMn1OlMVlxjzj0vQsv/DLv0Hm38Z//S1vNTZI+oIMDZIk6Vh67Ps+Ef/3/BTdqdP0w0t0dZtKz6IUIjJdq5QYaHSMuQCFws5pE2RaTkCQaLCzsgGurWyQDsqNq2pee4XD8vHa7cWzlqCLOV0MpJYJColGSyxX+kRiWgfW8sjV4VxIQs0AACAASURBVCUmG2fYzrfxd/+fp+mnn4mPfKPbKCS9NkODJEk6di4++ePxVDnHZHOTfus5Yqy06S0sqOS0gJavOz0i77tRa+SX3ci98soG6aC8fFXNF5opsjs7Y/djMxApUSnsPr53I0SJSp86xhjZTtBNO4btS6yXNYa10/zcv36ae2+bxe9++3ljg6RXZWiQJEnHyh3f/cPx9OZbgI5ueJEp22znDa60GV0/0LUXoPXU1DHmRIqga5WWoKXrZzIAN6xeWK5sMDro4L3WIzESO6txrgWIHA0IGomWup1tE7uhrZFodFGX2yomhatjMOl61rugzi9RpzO2107zU//kM9x+9lz8lvPZ2CDpFRkaJEnSsXHHd/9ofH7tfnLu6NsWQxto/RotdeTxKgUgTWkvuz1q+14RXoYFQ4IOv91H6avODYm893EJaOnGLRY5lu/beYuaGrUtR6LOJmuM48jYGqUU6jAw6YJPb0/5e//i1/kt5+9Z6X+PpOPD0CBJko6Fu/7IX4mnz3wl5J71xTP07Srb62fYbh20Oaf7OcMC5t0patqmRKVrlZoyLRUAclRKg5qXqxtSsLfFYhkgksMgdfD2PSbTTkzYfazujw/Lx+y12EDsPPVPIykaHSN55xOWK3o6htwRGbpoTIeRDpiTGHJmAszGgfnJs/yjf/Ep/reHz8XX37fmqgZJN0iecyxJko66/MGfj9npM7D9IpMSXI0JlQldLOhiWB7jl3oyjS7mVCYHfclHWssdeXGFhy+e5/SJdeoYkAsRQYq29wr5Kz/LfJUTEnRkzPsp/fYl3nVb4gd/31caGiTdwBUNkiTpSNv44M/EiVtv5+r2i0Aj0oTUgo45KWBMy6c7JSqAkeFN8uovZRkZjrocjVQKv/7MC/zvT23He++cGRskXcfQIEmSjqzue34x6sk76IerzLpg7NZYDNBR6WKkpkxNhQx7Ax/HVCiu6HxD+dM93ro6kLp1ntu6wj//1c/x3jvvPehLknTIGBokSdKRtPb4X4+6fju7U/Rr9Myvzin9bLk/netPjNgd+Jhf6YvpTXP90aE6ivo2MO/WiY3b+Ff//jng3oO+JEmHjKFBkiQdOfmP/f3o1k4xiatAoaXC2IJZV8jRGIGaOggoO6+v7w53TK5mkF6XkoKhjlCm/Nqzz/DLV4mH1nH7hKQ9hgZJknRkPPjhj8ev5vOQN+jLQBnnjDGSyyYtQYwLdg6QIFIiRZBoBBlIRApy7L6tN8zOqQg6niKVZbCLSpQJn35mzkP3Tg/6siQdIoYGSZJ0JNz1xMfj8/156GdMxytEy2xTyDnT2oJMopv2DMOwszx/uXJhNyq8/G29gV4jMrht4ugbyXQZoi3IXeHp51+Ce88e9GVJOkQMDZIk6dC760Mfj8+u30/kzPp4hcLIdiukbo0WlRQDRGM+NHLXQa0ve1U9sTui0BkBq5R3fsbLEz38ud4clseYQm2NIFgM/uIlXc/QIEmSDrUL3/VD8dzJhwg6pm2bLka28hQIGBektDwuMVKGlGitLjeL3/Cq+rXYoNersTtWMxKQExGVnApQiJ2jRHU8ZYIxQSo9wxhsb28f9CVJOmQMDZIk6dC6+KEfjs9v3kukwrS9RN9GapkwpAl9zCkxQiwHP+7OZNh1/dvBckZDchjkCpSUICWWsSGzDA8s/90SiUyk9upfQEdaiuXvtqXiViRJr8jQIEmSDqUL3/HReHbjImm6RsxfpO+DVguLgEksgOVJEvtnMOwu3V8ea3ktKKSASLHzb2PD6xduk7iJ5X3/lKRXYmiQJEmHzsaHfirmJ+6jn64RwxXoEotIBIWOTI5tKhNa6mmpUXZOl4C8ExmunxcQib3TJ7xBfv1SSkQEYbC5KbW9VSyeaCnplRkaJEnSoVI+/PPBqbuYjo129SVS30G3wTDO6YDcgpq75XqF1Ch7uyOuRYZXGvi4fJ/HLq5CxDI2pJRe9vdBSuEkjGPv2raY5f9nbpORdD1DgyRJOjTSh38pWDtLN15hWue0vnA1d4xDYkYHdYAMQ5rSxUjXlkMHG5nYu+l9ldMldgLD7soGvX43rmrIRAvIpobjLO/7U7ioQdIrMDRIkqQD9+j3fTJ+eTwN/TppfpkuFsxz0HIixbCMDLEMCrkrpNqAoO2uYGA3LCxvcJeB4ZVPmQgPn3jdGpC9wZQkvQpDgyRJOlAPP/lX45dnD8OJE0wvf55TaeRFpmzNTsC4xdq4TdcSi7RGms6YD5eYRKamjpYKu9UgUbl+QN3ypIlrf979Y8HS8Po5o+Hm1XZOG0mxG/VcISTpeoYGSZJ0YE488TficnkrmyXTLj9Fm0x4Jm3QVVjbukwjMy8zFgm6GMiLgZKm1LS7cuH6Zfs3eqUbYW+OX69UKyklatqZy9BiZ/1II5VCRD3oS9SbwCNMJb0aQ4MkSToQ933nX4568gGmk57tSy+wMVtjqwU5Xx8QUlxLCM3l+pIkHXqGBkmS9KbbfPxnop18gIHCpG3TTXoWFXLfU8c5KV0b6LiMDDvhIbIn6h1Su0deSpJkaJAkSW+qi9/5g3Fl8+2sr3Ww9QKtzim5MIyJEkEpmYh63YF5KfBYSkmSjghDgyRJetOc++5Pxv936itYY2T+0mW6PtFaMKagn3VENFqtpMh7kxR2t1G8/PhKHZyUXFYiSXp1hgZJkvSmuPXxT8QL03PLIyyv/Hs2ZjMqHYsaRGpU6s7JEbs8h/Ko2H++hyRJhgZJkvSGS0/8XHDiDspYmW49Q6zPuLw90HWZrptS60BdbENUptMp47DzebujGRLsRYfU3EZxSEQELUHZt8Ih7EOSdNMzNEiSpDfMu77vJ+JfLs7AyfNQt5iyYBIjL9R1prM1xvmCNla6riOXCUFlmI/ktO8pSmo7ixuMC5IkHQWGBkmS9IZ49CM/Gv92OEM5cZrp4gqlbdMisTXZZFIb0RZ0qRE509rulolETt2+eQy4Jv8QigTkRGtt77QJFzFIknYZGiRJ0so9+IH/Lj6zfj+cPEvdeomN2KLrM5dbzyLNWG+XAKivsEgh9sLCvltXVzNIknRkGBokSdJK3fPBj8bnNx6hTjZIdU5JUMuUxTiQ+kxpAzUtw0GQX2U//+5JEwD5+kUNRgdJkg41Q4MkSVqZuz7wsXh640FiMiVvX6LQ6GfrLFoQAdMEdXGJsZsBmRyQaDuffWNxSLF/hYOOikjXBnlKkm4+hgZJkrQS5z/wo/EbmxeJrlCGS8z6ICIzDNsQQaYxjo1+ssHYKtD2rVR49btSb1glSTpaDA2SJOl1O//Bn4jPn3iQ1Be67eeZMDJvHUFHn6DPlUiZy0OQup5pWwDQ0u5xiG6HkCTpuDA0SJKk1+XOD34snpvdCRFMYqTkQiqFSZ5RI4ixcnkxMJtNWJsWalyLDAYGSZKOH0ODJEn6sq0//rOxtfkAPQtuSZfZ3g7G6SbD2JjRWMznlNkmrUzZYmQybjNtA1tlHeA1t044n0GSpKPJ0CBJkr4s0+/7u1H7NdZypbXEVuvJfaYNc/qUqBW6roNxm8nO5wQd27kjxRcevGBkOMwSEcFuKooISs60CKA5V0OSbnKGBkmS9CVb++P/c9RayXnnmMp94SDnfN3bkiTp5mJokCRJX7QHP/KJ+NVyka6O5JwppdBa2wsLEWFkkCTpJmdokCRJX5T7H/9YfHbtbpjMKIsFKS2Xz7fWAPbejghSct+DJEk3K0ODJEn6gu740E/G5zceJnJwYv55Fmntusiwu4Vi98+7fy9Jkm4+hgZJkvSa7vngR+OZjYdoacKkXWFKY75v5cLu6oX9KxskSdLNy9AgSZJe1R0f+ng8Pb0bSmGWrpBq4yU2gGuRIaXkCgZJkrTH0CBJkl7RxQ9+NJ5evw9mJ8hbv8Gsb2y1nqE7yTQu3zAEMudsdJAkSYYGSZJ0o9s/8EPx3NpdUDq64TK5BFs1EQm6eoXGtZiwu4XCEyckSRIYGiRJ0sucfuKn4/n1e0ilY9q2KARD6hhzoWuVWWwzT/1BX6YkSTqkDA2SJGlP/+TfjnFygZIrXRpJBHXn6UKJSgqoyacPkiTp1flMQZIkAZC+7+8FG+fJ4xVmsUXQGNOUGomuVTIjLffM04TSFgd9uZIk6ZAyNEiSdJN78MkfjX8/uxO6NfLwPGup0SKo9ARBiUbKQVAAyDEc8BVLkqTDzNAgSdJN7O7HPx6/Prkb2pTp8CLTsmCkZ5FnQEcX8+VKBqaMZEo0+pgzpslBX7okSTqkDA2SJN2k7vnAX12uZJhsMm1zpmRambDdEgno2kgGWukJIEeD1qjZpw+SJOnV+UxBkqSb0InH/8e4un4P0c+YtEvkccHQz9giQwnWhgV9BPPSs0gdXVswrQuGNGFRpvTVGQ2SJOmVGRokSbrJrD/+s1Fnm8snAXU5b6HmHmplQl2+nTI1AdH2osIiL7dLGBkkSdJrMTRIknQTufsDPxJ1856DvgxJknSMGRokSbpJnP/un4znN+9l6Gb049ZBX44kSTqmDA2SJN0Ezjz+07G1foGaJkQ96KuRJEnHmaFBkqRjrnz//xLp5N302y+x0cFWzZAP+qokSdJxZWiQJOkY677/70frT8L8EicK1HGbkme0g74wSZJ0bBkaJN1U3vEDvxCL+cAkQ82NljK1QR1G7jx9kq966A7+29/1jnTQ1ym9Xm/5yCfjU+1W6NaYLJ5n1sEYExa5UrqA8aCvUJIkHVeGBknH3vv//P8Qv/JSYnvjDtrJh4g6kmMBXUcdg9JPaGPlM23g0//n5/lf/6+/Ge979AJ/+Q98rcFBR9L9j38sPt3dCZNNNsucsnWZsfZsp3XKbMowXCbTH/RlSpKkY8rQIOlYe+hP/93YymeZnNmktZ5aK10GhkquPYkGw5yUMpEnpJNn+Y264Of/3VX+2V/6B/FffdNv4j975ymDg46MCx/6oXhm415IM6btMq2ODN06QaHQYDEnp3LQlylJko4xQ4OkY+ndP/Cz8fTsIlfW7mRaMomBvi6YpKBLkNJIq1chGtAgdUQutJQZcs/27DZ+ZVjwF37+n/KrT12MP/P+txgbdOhdfPxH4nOzeyGvMa1XmbSBeelZpDUyI9M6J9GodMRBX6wkSTq2DA2Sjp2v/oG/GU9PLrKIjs1c6dqCVgdyCrqciBaMZFKGFIkUhUhBioEuCjllSkrUyYyX8m389D99iv/3s8/FJ//IbzY26NC68/Efi8/2d9PPThJXX6RkmOcplUSJBSWCljKEkUGSJL2xDA2SjpV3/5mfj6cmFyjrt3Br3WIyXGZslXnqSHnK0CqNTEsdOTVIELG87co0cjRKG5imkZEFi9Sx2DjDP3l2i/f9xb8X3/nNv4n/5B1nDA46VO774I/FZ9fvhckaeesF1kpji55FntDHnGmb00gMeUrNmRKVZG2QJElvEEODpGPja//cL8aza+fomJK3LpHyyNCCsUzIZUJEUBukBCUnIiADpLQ86i8yQaam5XaKRGXCgpzXuBQdv8Z5/tLf+Tf8ylO3x5/61keMDToUHnj8E/HM+kXoJpR2FRhhMiOGoMRICqgstwUBpGhGBkmS9IYyNEg6Fh79C/8wXuhuJ7fEetpmUmBeE/OyTuoKJQLqwAQgB61ukRrs3HtBADsD8hodNUOqC2Z5pG29wObsFi5HzzP5LD/3Lz/Ppz73bPzUf/EeY4MO1Nnv/Wvx7OQcqZswrZfIjNTZlBcXlUkKpm1OZcI8r0FqdK0yiUYjEz56JUnSG8TQIOlI++a/+PPxq+MprnanmACz3BjmA1dTIfcTSgRRKzUqhUZKkIAR6HMmImgpSCkBjSCTclBaopvMGBbB/8/encdLdpX1/v88a629d1WdobszJ3SGDhmAJJBASEKYAgmDTCEiF0QE0QsqhFEiIpKEMMhLry+uChdF8KrI76cg86D354BgVEQUhCtOhISEDpl6POdU1d57rfX8/thVp09ngE463ed09/POK68+p87Q1ad27VPru5/1PFUVaFLDTKhpo7KDii99r+aSX/k/+uKnXcCPn7nOlmxmv+u/5uOq/SMoQo/cjBBRnC9pmkRVlGhs0GmgINkqGYwxxhiz31jQYIw5YD3iV76gt+YjqMsZZoHeaAHnPCM/QKuC0Azpp5YkjuhLMoE2RUigRZ8mJ6Dr0eDoSsoBfGoRhTwCKXqMFBw1VbudvhPGuSBVh/HlVHHbp7/CLTfO6RVPO8/CBrPfyM//ldI7mjItUsRtZOeIvkfMwiBAahqSeBpX4GmpcgPqSFIQKSbBg6UOxhhjjNk3LGgwxhyQznrrtbrgSkrn6KUWEaEte6gqgYQ0GVVH7aruC7LiSF2DBkBic4/fO4nryh4coC1OoYsaBpABAYlDTpBFtrGe//GVmq8v/Jt+8HkPtrDB7HPy6s9pv1eQ8gIAUSpQcLELzmoA5wDFawIcibI7plGEhI2dMLtMT1sKkidveVCHKAgJR7fdJrtdp7hAhtQSyOSc8d6RcYgTckyIOLoT5kqT2ySDOowxxhy8LGgwxhxwHnXNJ3WnO5oVr3lR1eXpEfvLCKiCUOD5h2/ewLN+/Sb90cedxY+ec6wFDmafKC//iFYz60i5Xe4pYsx9IcqKPh2Tc6d2W21EFa/tpJeHECfHmpCWvy65HsklWh9APBobco7ghBACmr7PX24hgzHGHPQsaDDGHFDOestndHv1ALJz9Fe8kr1zyLA/QofGBcpYE1RJ1RH8y1Lmu3/xn1x3x6L+0pNOtbDB3G9OeM0f6ma3ATe3DlAUsX4LZq/cJWQAdFrxRaKrPAAVT8bhuJseH07Ik6IF5xxOFMQjImS5pxGq05DhztUOxhhjDiYWNBhjDhjn/NLHdfv8ybSiDKRBsluuZJgGCyL7b31fEAhBkZRo1ZGKPrekwEe+tpmbbr5Ff/vFj7Wwwey1k1/3Ib0pHA2hRHSICKiE5Z4ixuytaegw7duhOKLzgCKqhEmom52j22qh+GaETw2ltBBrMoKfjBGOMXP3p+LMrqDBGGPMwcyCBmPMAeHhb/mc7pw7CY/Qoya0I1o3WLWQAaBIiTYniioQcsKnEUkcW9Msf755zNPe8yV92SUP49mn9y1wMPfJia/+Pb2pPA56M7hmJ3OlZ9xkNImt18z9b0WPhiQO0Uwg4XXSu0Y9WTJeIZBQyXhRvPdoovtfBC9ucl6+uzDMAjJjjDkUWNBgjFnzznrbX+nO8jhCKPDtEuQR3gUa1eVwQUT2e48Gr5EcAnXKaGqoRPA4kha0xXr+daHhnZ/6Cv/1iI16xRM3Wdhg7pVTXv8h/W51PIqjSEsEbRiPHOIrqiBEW6+ZvTY5f+rKRpAOUaXQdvn91k8/LxE04xRiMUs7HjJqHfPqqYIiOZNU4B7Ox10thDHGmEOBBQ3GmDXtlF/5Bx35wxkEaEfbKHsVyiyjNnb7h6elvqswqq/OLeIhiEeLGWJqcZqZK5WYa5aystnN8oEv3cR3bt+p737ewyxsMHvkmNf8od7qjwJfMpAGjWOSOij73S/udgxiv8LNfbeyGeS0l0KWbmuEkPAaURyN8ygBT4vXCEByjiYLuAJcD3CQajKZLELOgmPX6a5rMDn5u+jCC6tsMMaYg5u9SjHGrFknvu3vtO0dRs81uHaJqnA0MZOdxxUVPk2uuK1CyAAgRcCLo25aCA4XKlI7pm27kW8zZWCcYTGs45Pf3MKN7/mCvuzJD+MZp663wMHco7lXfUgXB8eCC/TyGB9rIg4JFQmhiQ3BqV0aNntlOl1i+ja4SRigXY8GKVERHCAa8dr1V4jOkcQT6ts5vD/gpHWBsoDFMajzOOeQmCaNJLu/axoyTA9ZIdvha4wxBzkLGowxa85j3/EpvT4dhlRz9ONOPIkkgqrHAS5HVGGV8oVdMkQU7wvQCLFBBCKBRKZUKOMSFH2aucP50tYhmz/xT/znuSfq655wioUN5i6Kyz+quv5ESEPKNEYyNBSAoCnjSKgIrRT41T7+zQFNpatckKyoD2QESYnSCU1y5KqHxpaShpATrRSkUKK5QccLXLBuJz/1/GewZesCf/HP34LyMBoJFLGhQEkIWRxOQegqIfKkCsfnTLIzoDHGHNQsaDDGrCnnX/lhvTEcTzG7gaLZSZVrkjiiqwBH0IjXhAIJv8r31k3+z3jNiHYvnpMElAKNkdlQ0jZD2gKKdYfzne2O3//77/DtbUN99w8/1F5qm2X+8o+rO2wjabTAfEjEnIlSksTjNeM1kQXQXZ3/jbmvVDNFUZBSIufcTY2YfMw7yE1XRRZUaCippQepZW54B4990HF89vLLJuevPl/8x69rkiNRAkEaClESmSQBpxmHkhGygFNAEqz6+dsYY8y+ZEGDMWbNOPfKj+rtvRMZVLMwXsBLpnYVKkzKdrty2yQepxlWeZneLfO6fcZJJqGD5OUSYycFowih9JQk8sJWBkXBdpnnT/71dm7d8gV9wUWP4LJTZy1wOMT5131W8+w8MtrKnPPEFtJy6XoGtDvGJINi1Qxm72UlJqVtEyJCGTwgRM04jcz6TGobRlISpQBtmGvv4Gee8GB+5Tnn3OmclVFVRDKiLTnX4HuTUKwLYRGP4siTY9gYY8zBzYIGY8ya8Mg3fURvnT2ZHHpUzQIut7ShT+0KPIlKawCiFCQcTiYvXlfRygZnKo6Mw5EnVRcN6ktGUlCnTCXKnGtxDsauz8gdxd/fscjmT/8TNzz8BH3tRTaV4lAlr/mcsu5IQrOdgWupYySXc+QcCdo1GE0SSCK4SYs9UV3e/27MfRFCIOeMiBBcV12QUkI1o6K0WWgpyS4Q8pBjiiVe/5zH8erzjr3LkRfKyfYxEs4rGh2ow00+887HqrWBNMaYg58FDcaYVXf+NZ/VrfOngDj6jEgk6PXQBKW2iHZlvQCiGSdr7WVq10Rter+SOLJEstYUZZ8YhaweLWDc1rQNzJdz1G6ezU3N+669ge/csaT/80fOtKXjIeQBP/chXXSzuLIH40WcKo2UpMKjucGTcJrJ4lY05ZtOC7CtE2ZvdaebEAIgxBhxQAiO5EqGUkDK9JstXHBc4K9e/9x7PD+1dUPuNUjooRoIztFOXmKKZkTdqlegGWOM2b8saDDGrKrzr/ywfnfwQLIrmWm30S+ExVBSa6CipswtSQKNVACUuaErIxe6/girp6tm6O6D0HVlzziyBKKUOJ8hjenhiOLZHqEqBgzKEpbGOCfUoWJHeSSf/vcdbP5f1+qrfuhcHrupZy/JD3Knv/a39Ob+WQSGzMQhqR2j5XpaH4jtEj1puoBNCrJ0V5udJpxCxpHEtk+YvZNSmkydUCIZnBC8oKq0bQsONriaZ569kd9/0SO/7zmpkK6qoZFAXbc4FeQuXzEJZAGnYs0gjTHmIGdBgzFm1Zz3lj/Vhd4D8N5R+AYvgXEbEScUAqJuuWQcwJG7ZnhrStePQSc76adEwSUhx0SSiCsqBr5HjJlRM6RXOgoXyGmEqKcpB3xl25A3fvTvecGjT9eXP+q4NfcvNfePk171u/q93sngPFon8AFXCeM0xrkelQhOHapCdpMgS6cdQRwq3RFnzN5wXkE9WUBSxoujzUobE32nHBlv5/KnX8AVT3zgDzwXORfQHMAFRBTnMuSub42KQ0ksb5jQ1Q2IjTHG7B8WNBhjVsXhb/t7rapTmHNDBu0WWvWMwgziSwZtxLvMGMfIF3hVgjY4heimkx66WeyrbtLYTMWRCDi6RmpFdsQkFP0Z1LXEpibESN+VNMEzlIhqYsZn+jmzpIHRzOH8azPiPZ//d26/9Wa96tnnWthwkDn+Z96jt617EI2sZ2bpZqTqM3IlMdWUvqWILSRHKwXqPBBxmgDI4sni8JoIOZLEfoWb+05iJIYCVaVE8ZIYt0DoceIRnnc89xIu21Tt0TmoTUJuPVIITjJZa7qShukxmgE/GXVpjDHmUGCvUowx+9W5v/pF/V7TZ12oELYRM+BmIUPRdJMlmuWpZ5kyd2GCTsrFu+0KayBgmNLpFeeMZ9d9jV19MDE23ccpSUDK3aIxTEa7NXhqVUQ8M/USM1lZ0hl+9xsj/nH71/UzP2EjMA8WR778A7rt8IeQ2pYZuYW2KCEnXE6UuC5ggMnUv9wFadodT9BVNXi648dCBrOrGa0sN1t0WXFEknNkX6AqhJwpJUFsiRKg12dUZ2ZcS0+HjNQxKjZAm+nVm3npGUfwGz/1+Ht33nEJ8RkkIyoIYfm4hcn9FFaMt7SKHGOMOdjZKxVjzH5z4VV/olvckcwMArkdoq5Y7bu0qqYLBRGhC08EFUVEERf45g23cfG7Pq8/9rgz+clHHGmBwwHshJf+urZzG6EZ0ysKYrTycbN3ZLJtC7Qb90tXWdVIhSNBO6L0gYxnGB3eD3AuovUSM+Kos1BTkKWA4VZOGmRe+sPn84sXn2TnGmOMMXvNggZjzH5x9ls/rTtmNuHUkeohZeFoDvGLWiICuuuHoAKC4F23A1/LI/jmYs0vf+YbfOuWTfqOp9sIzAPR7OUfVj38DJJmCjJoIt9tszxj9pzoyrkjk14xMqluUKHyjtQ2iO8jRUnMGYmZgkRwUFdzxJjxS9t59PEDLn/ymTz/bOsNY4wx5v5hQYMxZp879+pP6OZwDIWvGOSGUBTUWZBDvHxWVXfbr9y9LyCC4GhTJvRmGGuPP/qHb7H59i36osefwcWb+rYYOECEV31M0+AonHMQa8pQ0NY1VRmI6dA+/s3eWbk1QSkmFVJKoS2oo8FTVX00tbg0RJ0n+UB2PXa2LZoig/Ed/PDDN/LBl1xo5xRjjDH3KwsajDH71Nm/9GG9Y2YTs4N5ZLyD0iujpGgY4PN4te/eqhJ1QJ40lHSIOnTa50GUygmiQwDi3OH8n+sX+fb2b3DT40/Vnzhngy0M1rjidX+qefYoKmlwqaYF2hwoVEB0RwAAIABJREFUez3SaBFCtdp30RzAVGR5GoniQEFocUQyJYmKUdPScy1BEzFD9hUxg3eOdaNbeeUzz+fqJ59s5xJjjDH3OwsajDH7zPlv+YQuzm3C+QEMF/G5pY0ZX5SkSVM7szuhK4dWTSgKscZLQl1Fb8MxXLe4k9/87D/zHzedoL/8rFNtgbBG+df+mebeHKEdIXkI3lGWMzQx04xrekVFawUNZi/Iim1XsuJ8mihJzlM6kJgofWCxFXI5h2Slt3AzpxxW8gsvfCo/dpYFlsYYY/YNCxqMMfvEg972eR1VxyM5MSNDkleSFIgIoonCjUn4H/yNDmIquWu+fue58pJx2s2fz6ECMgGIw630i4qdsoGPfGMLt9+yWd//sotsobCGnPpzH9Tri6PIZUmZhlREYtEjiie1DS42zFQDRm2cNAE15r4R7fq6dJMephNvislEkgi5IXhlmAtaP4Am0W9u5ZkPnuOPL3+6HXzGGGP2KQsajDH3u5Pe8bda94+h1EivHeJSpBVH1gLvPJoTkiIc4kGDiAddWdmRu9nzK4KHJAEEfG7oSYtTZSl7YjXLtbcrT/q1z+tLLj6DF5x9lC0cVtlJr/yg3tTbSBZHyYgekTpJty9eFY9SFSVNiuDcbo1Ajbm3piMtUYfilt/32iI0JJTk+7Qp4IlsyFt44WNO4V3PfYSdK4wxxuxzFjQYY+5XG9/6d+pn11M0ixSaiAJx0rTMS0KzAo4kxcqW6YemrMuLg2lfTNXp5gmQ3BImC4iEQ6XAoQTJ+Dhk5Of5Vurzjj/9V/79lu16zVNPswXEKjnh5b+lt8w+iCwlpS5RaqJWTwwFThNVbskCNQGQ3crejblPnENUuzGXriIqBCIhj8hAKmaIyeHbRR46n3j5kx/Bf7/Q+jEYY4zZPyxoMMbcL5749k/odXIsOthAXtrKYX3HuMm0riLjCBpxJDKZLI5MwE8aHx668q7y5910TSIdimhCVYgu0LqAaKbUlpBrcNDIgG3lMfzBlzdzyx3b9H0vPN8WEvvZxle8V783OBGKQC8Ncc2Y2jlSKAAIKeE1kyWQERzcw+NuzJ5TVYKD3EZijLiiAsm02eHKPrFJ9NodXHzKej7zyovtaDPGGLNfWdBgjNlrF1zzad3MEbiqpBhvZ9ArWKgbxAe6BXPXFT0BMllcO3vZu2z3KZ+7wpeEB+kaRIrm5Y0mCU92gmeBvsC4Lcn9w/mzb93Bk3/ji/qyJ53Djzx4zn7C+8HGl71HN89tgsE8bmkLVVDaUKKhh6RM0K6SIUmFCnjVyeO9q3LFmPsiIMTYUgShCp5RXZN9Bb0NjIZLHO2HPPeCjfzmj1r4aIwxZv+zoMEYs1cuePOH9bv9kwmDecrxHfQKZTFCE+bwJKpcA4koRVfFoHESNuTd5sAfirpmkO6uS87JuMskjml1Q9CI10QGshRECvquph3vYKaYpY4lzeBovrZ1gbd+9Etcd8FJ+oZLbCrFvnTEKz6kS/MPhN48vh0x8F2gNhaHA4K2eM1EKWhcwE+qUQASBdjkFbMXCumOIA0VO8YjfChx4onbt3DqOs9LLzmbK564yc4BxhhjVoUFDcaY++z0Kz+rOnM8hS/I4wUyjgZwPlBoxOUEKuTJS11HnCyiOeRDBgC587SJqcntXvOkvL4LZfJytUNGgOzm0DAmSqL0kaA15WCG7bngfddex3W3Lej7XvBwW2jsA/LKD2t/9lhwHjdawnsluRliTngRJE4CBenqeQqNiOqkvofueWDMXmhiiwsFwyZDbx05g99xK5dsWsdrnnUhTztt1p77xhhjVo0FDcaY++SRb/iQbj/2AnrNDgZxJxlHW85Si8PVi/QlkdTTuoKMm1QydFdws3jQgBBX+V+xNtxTAb2QV1QxeBIlAEEjhbYMh57QHxCJtOMRM76lwLFAYDR3HJ/6j61sfvff6E9f9CCedeaRtui4n4RXf1LZsJFmaTs9MnMhUGvBMAneQaURh1BL14UkaCLkiBKIrrvNWzNIs7dcwDlPIY52NKTfLPDc807i9178SHuuG2OMWXUWNBhj7rULrv6Ubjn8odAs0nOgTcYVJQ6haVpC8MSUySJkwJG7zujIrikLFjLsGe2aNIgCMu13AYowM6hoUyRnxfuSKCBO6Tmh1YisP4J/2bKNaz7zNf59y2n6848/0RYge6l89WeU2cOQeoGyV5DrEamNZAehLBGFGCNBHKIeJ92PvKtI2VXBMt02Y8x9pdIda64eckqv5SefcjZvfLJtlzLGGLM2WNBgjLnXNvujGfoNHNdeRx0LpL+ecd3idcxM4VmsFSkGiCohdz0ZujnvDtQhdNUNutze0MAkU1hxoVsJRHEgXU+LoHHF7QWuHdLDkZuElDMsBUebEzO0DOJOUh2oB+v5jit437XXs/XmG/WdP/pYW4jcBw//hd/Tb+Rjif0jKNpF1uVFtod5QughOdPzQp2H1DlT9QfktsXHCOqIznePFxlRxYv1JzH3j9S2PPi4I/jFy87nR08r7LltjDFmzbCgwRhzrxz9y/+kYTDPMe1mhvTBQWprnOuutDdtonQCqV3+mumiSjQznapgIcNdyV2q6SeVIJPbdy1O8yS88YwlQxlQafEJgmayZkYyAKfM65hYD6E8gg/9V8NX3v0v+pqnnM4zTu3ZomQPbfyFj+jmfAq+9MyNb0N8ZmsxoGy7YzkixARQUAI6Tt1jJdPjXvErGz9OGoCag8XKR/NOT2KZjLDFoZMKr6kyJ7JMar7ET46LjJBwCiq+qwCTjEx7fLgCdQVNm1mvDZc9uMfvvuwxdjgZY4xZcyxoMMbssYdd9Qn1vY241NDmBM5OIatOV4Y4LE+sQMAFTxMbyiIwapaoZgbcuGORd/7xX/Fvj3mIXnHRSbZA+QGOf/lv6Jb+Jno9oRluQ3o9hvWYKnjUxlMaYGW4IMry9rDuT7fiY101SxcoZqIrYBK4iipCF85m8UQJSE5UtHgyo6Skcg5VxS9t5cR1npdccBpXPe0h9hw2xhizJtkqwRizx4ZhjioUoBGcLbJW2523Wtzl46pklCwZ5zNZa3JvwLcWE+/9h9u4Zcs2/bXnnGMLlXtw5Kver3fMn0HhSnrNAkhiKXtCMUuVEuPv98M3h6xp2ND9OX166aQ6aUVNgzqy7Oph4zSTxZHpooteGXBNS8KRfUlWj1vawjlHOC6/7HG86KzD7LlrjDFmzbKgwRizR8686qOa5k+mbhIzXnHOkWxC36paefV0ec27XOEAOSVCqGhioiwKUqzJRGY2HMaOsfLhf76B6+4Y60ue+FAuPXXGFi0rHPvT79U75jYhg/XocDuqLT4Emgz4jKpi+x/MStPnoMrK23aFUd3WJzf5uOC0Xc5rla6XB3QTSYQR41Ek9Oeom+4r50e3cPFp6/nY5U+yI88YY8yaZ0GDMWaPDMdKnJ80JnRKqiN467Ow2u7poroAwXsgoOJpY6IUR27GaM5sKPrU64/nS7cO+fbHvsp/PfqB+vrHHGsLGOCon3m/bpl/EEXVI23bTBmEXFREFYJATg2tB9SOf7PLNEC4u60Uuz7G8vSRQmsUR5Iw6d/gcGS8Tiocen3GONDI+riNlz7+FN55mVUgGWOMOTBY0GCM2SM95xgCZRWI9ZhKAs1q3ynzfXmEJrUEX6DqaVOiKnt4zTSjHRTlOlJ/jltS4n1//W9879ZbDvmtFA94xft1x7pNZF/ixjuYLz3ZOYZJceJBIyLaZQw2odXsRu5SYbT7+4oouElj0ERJFj/ZPpEocw2TyoZMgUsZt3Qrp20IvOG5l/Dih244pJ+bxhhjDiwWNBhj9kjICrEleY9kwXsPanvU16LpaqRJsZsGkjK+rIi5YmfTUAj0qhmqVOOIxFCwkGf5k/+7je9s/7K+6NGn86wHrTvkFjXzr/4jHc1tIsbIjB9CKSw0issOpw5cxAUhZ4+m9IO/oTk0rBhXeucKIxXptk9MmkA6YDp7onZ9dPK+066SoXWOVkpACEu38LRT5vnEa37okHsuGmOMOfBZ0GCM2SOhLABHzkooK8b1CLydQtai6VonFAUptzhRUhyjUlH0++Q2MtJE3wlFGuO1RYoe4+oorv3uTm7/039h820n6s8+7sRDZoHjXvcx1bnjoR4zX0CsFxk7T+jNQ6tIbvFeiLkbR+gJJCxsMLvs1o9BplsodjWBVHGkSZ8GJOOIOE047Y6p2le0EvDasL7dyY9f9BDe9ZyzDpnnoDHGmIOLrRKMMXtkPB4i8x7nAkqL94lop5A1LeaEqEPJCOC0haZFpLuKOpaK4B1eEyE2FKLkfp+bmsR7/+Y6/vP2nXooLHTktR9X5o6Cesh8yKSotGEGEYV2NNln72hzt3de8uSa9EH/kzHfz3IzVnXLh8JuDVpFQBPOQUrSjQMOFW1ucWT6NOSm29o0lpJc9GC4nRPCIm98/mN56XnH2RFmjDHmgGWrBGPMHvnmrz5fTnnnl7UhEOOYvs9EmzqxyhyQ7/H96QK5Wwh1pdndjQCZJEIrBUk9gYaejknZ00rFtuJwPv1v27jpvV/UVzzzAp6wsTzoFj1nvP739Lo4B3PHQEoMmgWcc9RhhlwMcO0SZW7JCK0ryeIIma5U3hpBHvL0bp4Ru3oyKAp454hNxhcliGc8XiR4CF5o24iGisZXpJSolm7hwmNnuPL5P8wlJxQH3fPNGGPMocWCBmPMHuuNtzMe9BFfIGnJruiuujuHDHe13JQOSOIm+8Md4Cm0JSEgkJh+LBO0JRHQ3jr+8Y4dXPGHf81Ln/Qw/elHHH3QPOInv+6Der0/HD+3DmkzRWrwoaRBUVG0GSJAK8XkKwS34mq1SrrHiR/GIF0VUUyOUPbQlElxxGwhOKc0TU0M8yRfQTtiLm/nv51zDO9/0WMPmueYMcaYQ5sFDcaYPfZ/r36ynPSrX9VWA6O2hHK179GhTaULEqZD8+5+3ZtXfP6KPeJAlWtEICNkCSR6dEFDpMpjkjp0sI7bmOfXPvM1brr5eH3bMx9ywC+ETnzlB/TGwanQF6gbinGND4Fx0SNrog8UmmjF0boCUbqRg6pdhQggMg1sjAEkg+5+PKgqRRFoU8aRKLzStg3iAq6/Dm0CDBc4uj/m1U9/FG98zMYD/rlljDHGTFnQYIy5V8LwNmJ1LG5wJDnuXO27c0hbWa2wZ/JuS+MofrnCQZRJgzpQXFf2jRBiTSNCMziKP/jSzfz7Tdv1Fc96JE/YeGCWdh/98vfplv7xiPcw3IlXpdcriB6yRgKCZkVVEEB0+jNTVFaEO9ndbem8OYRNwobuuHCIU5CIpoh4AedRX6DlLONhw2x7O+c8YMBrL72Yy06fs6PJGGPMQcWCBmPMvfKtq54im678S61njsV2qa8BMqlYmFxN3bVHfNenTBfHXXd7cJNpCbWrJlfrQYiUOZMFsgRaV+A1U2rNQGBnFPSIE/nStu3c/v98kRuefLa+5OzDD6jF0dGv+IDecfiZ5LZlPm7HqVLjGeaExobKg3cV46j40IPcdD0aBJSwK2SwLRMG6GqJdh0My+1PJrz3tKMlyjKQMjTquxkUO7dQecdzzz6M333JRQfUc8gYY4zZUxY0GGPuteuvuVhOuOZa9aXtnVhVk5BBcfB9FsG7Kh+6Pgx5stnC6+7dPPNyt3xFyWSv5ChohqCRGJeQXsmN44r/+bmvc9Otx+uVTznlgFgonfCz79etMxvJMVL5RG4jFAOUbjqAQ/AIMSYyigsZbXW3GpDln6PbPdwxBnXLIUPXhFXIUSlcgUeoE3hfosOtPLAa8mOXnMdVTz71gHjuGGOMMfeFBQ3GmPvkmDlhS73a9+LQdncX1uX7fEzFdaEE3WIoaAtMejRoN35PRBDNeGlISUlFRdtmygIqXSC2iVyt49ax57e+dAvX37pTf/rRJ3DBA49Ys4um43/md3Tz3OngHXNxO1lbmmqeplWqACErqiV1ElyAqqxp4k7UVaAFbrkaRJfHGapk64V6yNv1LLtzJdG0usH7ithGQjFDszTkQUfO8+ZnX8QLztxgh48xxpiDmgUNxpj75MuvfbQAnPTLX9ZheTh9WvqjWymCY0hFdgVFHuM10khF4yq8tpTapRONVIDDkRHNdypC3mVarn4Xd9N87VAjd/Pv/35V/XKnCoa0YvOLCKAZpuXf6rtIou3aR8YEUHWfHFtmQksZevx/3x7yr9u+zUufUOpLHzq/5hZP8oYvKLMnMu92EpOw5AaIU8pmidJVaKLbSCINeMgKuQVHf/KD6LaZ3Lkfw9397M2B5a7nlt1jOp00SnWAkCbPH4fiSeIofYY2dX098IxdoAVKaennMdkFFtw8FBXl6BZecprnd1/xlDX3HDHGGGP2BQsajDF75YY3nidnXvkZHc4cQz04jKYdUZAgK5GC6AqcZvppRBJHI1U3XFEzQly+wn5PC+R73A9vC71V15IZDAZsXRzznk9cy/duOkmvfPramUox+3OfUrSgKDwNgawsH5s5lLtPBzWm20jDtPeC04xjGi44onTVLUKizC1t9JT9Hk2KaKwJaUQpAXUlO7WHZE8ZFzlcbuVFl5zBO5/xoDXz3DDGGGP2NQsajDF77f9e8ww556qP6y0zJ0CYxachpUYi3VVzIXdXBAGVbsEXyLiuE0A35eCeKhfuwmErxLVDNTF2BXVxLH/w1Tu4/vZ/1P/9E49c9QVVeOOfa5KSvks4HCP1eCddrwnNRPH2C/AQd/fnG0VFlj/mFPKdRpl2I2UzLvQYtRGloV84iqTEnMguoGSqPOa0aoE3XHYhLzj3+FV/ThhjjDH7k73OMsbcL776lsvk7Cs/pnfMnMg49GnTEqW0iMZuioFUiGaK3ABdY8LdSvf3uJO/hQxrhUgmA71en2GrjIp5rr1xB0//tT/XFz3xLJ53zjH7fXF16ms/oN/tH0/SkqJyuKi0SXFdCwpUBRIEJ90+CWPutA1LdLJ1Ak90HrpZEZS5O/ckcbRSIBKpJHfnrizU9GidJzc187rE4zbO8OnXPM8CBmOMMYckCxqMMfebr13zw3Le1Z/U74RjKGbmCPUOCq1pcF2PBhJVHgHQOkfGTUYrTqcnmAOJiCAocbRAzzl8qGirOb4xbnj7577Jf94x1Dc/6eT9ttA67pUf1FsHmwjO0Wt3IslTS0C8UACaI00G5wIBnXRfMIe8e9iG1fVo6CqoPN0I2K6ywXU9GlhC6wyUaChpfUke7+SYQcvzz9nIu37kPAsZjDHGHLIsaDDG3K++fPWl8sirPqE3L2XqsoeqEHKCXKPiaF1X2SAKnhXjGa1S4YDT5owTmKlKJEWaOCb4PrE/x5am4kP/8B2+e8sW/e0f3/dbKU56+e/o92YeCFIi7ZCBd4wTOAmIU9BEiglxAe89qa1B/A/+xuagtrLJ552rqkQVL+3kE7tz1/T2Itc4WlI5iys2MB6P8aMtnHN0wQsffQaveZyNrjTGGHNos6DBGHO/+8e3PFse//bP6nf0WMZujr4uUeWaxgVa6YF4Cm1xpG60ogC4u0xFsH4Ma5uEAsmJnISoBTEnnDQEbXEiDP0cn/uvBZ76G3+jL734ITznjMP3yeLruMv/t97W30gIjqAjVBM7U8A5h5DIsdviIS7gncOLkFxYLpE3ZnddM0ivEciggSiehAPJFNpS5sTY9Uh+hnq4RNVu46mnzfKJy22qhDHGGAMWNBhj9pEvvOnp8ui3fFK/13sAY1+gkvGqFNp2FQzqyDLdLjGpbLjTLPqOhQ1rVUoJL546JULRR5yS05i+KEkbnOvRzB/F17cPeevH/pkbb32gvvaJ9+9WihNf/l793syp0JuhGt1GzzsWKcjVLLkd0dMWREiuxImS2hrNjoSzX4DmHhtCAiSZHCEiCJlAi+SuMWQjFcnPou2Y2XQ7L3zMKbz3v51rIYMxxhgzYa+zjDH7zN9edakAHPe2a3U8cxh+vMicJEAZquJDieSEqlIUjrppCKHEiyPFiFrAsKYFlJwzOE+KYwQHFIwnYwFdquk7RzuY4Y7Y591f+Db/dvPt+r4Xnn+/LMgOe8Xv67B3LHiHj0Occ9QKIg6JYzwZVQU8kpUsGecmE04QsIqGQ5pIdxjq9DhwDlFdfj+JRwl4l/F5TKE1Ip7FVnD9efzSNjYOxvzs087liotOsZDBGGOMWcGCBmPMPnfzLz1GTnj732mu5tnZjKhcoigdqa0REbx0zdiC96CJcd1QVRUpWbu+tUy0u/Yr2o0vdZpJEogUJOcY+AaJO0k6hjDPcPZY/uzbd3Dpuz+vL7jo4TzvzHX3eXF2ysvfpdtmz0GkpZ9GiAitVJMGo4mKBlVdviotJNBJPxAFb61HD3mq2o2qlG7E7rS6QZySVfDeQ24pBKImGj8AHP3KERdv58Jj4JU/8mQuO3XWQgZjjDHmTixoMMbsFze+6ULZ9Pa/1Tg4glG7RE8bCg9JhZQh1pHghRACWigZ7a4823pwzeqaeE7f9pNeGxlPS1ZIviRSM9v3uLTEOBVob56vbl3ge3/+TW687Ri94omb7vUibeby/1dTdTq43E2TcLJ8X9ykCiaLI0+TEFgxwnD619mBZZicYxziHDrtEdOVvKBxhM9jclZkZgPj1IO2YV26nac87AH8wU9eaAGDMcYYcw8saDDG7DfXv+nR8sCr/0yZPZqmEXIhKEJZlhAzmhKRiIgQY4Nzdopay1R2NfBUAknA01DkFsXTNgUUcwxTjUsNszmTfJ80exg3jkf81heu59u3bNf3vuCcPV6wyc99Rpk7CY9nLt1KKwVRCkQVpwmnkJ0nSlcGL+iKkMGYXaZbJ7rs6a7BkwuC5IqM0NSKp+FItvOqp53DGy+xrRLGGGPM92Ov4o0x+9V1Vz9VzvnFP9bh+tNY9IGQE209pirL7lp4SpRVNzEgJl1ezHZ94LEqhzVktykh0vVlQB1JwKmjckIWx+IoMVP1cc5TLy4h/ZLZskTLo/mLb+/gh37zWn35U87hmafN3OPi7SGv/6DeUB4J/TnIY8qkdDMBuj31goKT5bYLu02U2C1kWC5xwKoaDnErAihdcbyIdBUNUUuyK/AKg2Y7Zx2m/PxzH89lD95gIYMxxhjzA1jQYIzZ7776jufJeW/6hI5njqQsCrKHpm0JZYVkIcdEzhlxMlkK7po8YSHD2uE1kyb9NZy2OJREIEqJn3zc1w0z5YAsgVHKhH5F6TLNeAe5mmfBzfDN2vHmP76WGx5/qr7ycXedSnHa6/5Ar/cPILkevbyEb5YQERb9LIUmgraouK55n4JXJWieTDVxqMjkuFl58NiBdKjTLCDTPjAOEcf0uBARBI+OG8q0wLMfegx/+FOPsoDBGGOM2UMWNBhjVsWX3/5secxVf6Rbx33i/HHUviDFmtJNmrS50P0p09L8LmwQ8mTx6Ha/om72uzxddkkGFfKk/4EjowJNTt2in0SdYvf5osSUmK0GLKaa+aqkTok7wmG86y//g/+8daf+5nPPXl7QnfjKD+jN5dFoWeLqBbxkfNGjTnFFhwiHiOBU0EmFQxa6q9XL38mCBXP3uooYgK45ZNKMJkWbBTZVyoue+BCufsaDLWQwxhhj7gULGowxq+batzxfHnPVH+mNdU3q9yi1uwreZiaj5hJOlQTd/n8Fh5LJJALexl+uKsUtl5/n5cqGjNeGDEQfUOdRzZQSaYkkV4AUbK8hFJ5+u52QE4u9Y9lRncZH/+U6dmz7az35uKP5nb/4GjdXJ0IvMBN3QIrkao6lJEjRp98skVxBcgEHSMrdBAFxk79Xuz4NdxpjOa2KUVs6HtJEuoqprnqhq3pRVZJmcsycduR6rnjmI/nvZ8/ZkWKMMcbcSxY0GGNW1bVveb5ccM0ndfO4B8UsdbuVQV9YaoaozBLo4eOI4GpiEBoKXBb6ItRAXjFtQLibpn/WCHDfmvxsdzWFhDT51eInOVBGyFoAxeQ2BQ9kWGQWHJTtiJIReWYdX7w98/lbthCOOJH5pQWGoyFtGdBeH9WWALhWSAREwaXULRoFRDyoQs7c0+rQAoaDg+jKx1ImbytCRjTjKUgiNDkRnFBqQrISXUF0Hq/d1BKvmaRCG2ZpmkhftvO0kz1/8qon2pFijDHG3EcWNBhjVt2XrrxUHnvNJ/XmeDhtfx3DpmbgWzQuEkNF7PUgJ0KqKSUTnbCgiUqFQMZpJoubbK+YhgpW7XAg6LbHyPKfIoJz3VaIEAKHhfVU9ZidS4tkjXjvcT7QNE03ChUQ3z3m3jlyzrt9X3PwUtkVNLis+Elfjugc0FW0lCRKEi2BhhINHi8Jn4b0QkWdhKEE1FX4eokj8nZefNEZ/I9nn2kHjzHGGLMXLGgwxqwJf3PlpfKEd3xGb2h7ZN+jbTOF1KBCwpHV43OA3CKlxweg6Ur1V+qmUqy4bVrNsKLXg6jNHFgrVoYBK8OG6ceC88z3BhTi2Lk4pEmJJIlQFl3DUBHcpHYhxrjb15pDwd08k7WrbnDicDmiqmhUkvMIDmgQjdSNJ4aCsj9Ds7SDTTNjfuHSJ/BT5x5lB48xxhizlyxoMMasGZ//xWcIwClv/Vsd99YxygWFjqnaGtSjvk/rCjSN6GuikZIou05johmncVLZML1xEjqo261k3kKG1beykmE6XnD65/S2nBKlD1SDWbw4diwNGeW2G2spilPIIsiKMYV7EjLsXnZvDlTT/hsqEMUBgldFNEJWainIzhOcp59aJLa0DmI5gFwhucFt3cwTTpznF57/DJ50XGFHhTHGGHM/sKDBGLPmfOvNj5YT3v532vYPxyVhNtfklKhdpA0lUgd6GQjdBonpBAovGe6uWmG5j8D+/7eYe7YyFJgGC7sFD5KBTEot4OlVFb4IbB8tMRyPlrdMdIlBxgchp7t+b3NwEgWkm3Ciky4tjq7ngpDBeRpfEbODWNNXewgVAAAgAElEQVTXMcFlGqmIOoNLI45Iizz/wpP59ec9wg4WY4wx5n5kQYMxZk268U0Xyulv/TMduXmGoY/4FhhTaUN0jtrP4vIIR1xOFRS3Ygwm6J0aQa4MILotFvv332R2t7J6YWr5bcmIOPCum2CRIwBlUbBBBvSCZ8vCwl22SjjnyOhyIcs9/t22rDzgqZs8vyfhop80ggRHlAr1ASHSI+JdRoo+NZ5cN4S0yEnlEi97xvlc8biNdjQYY4wx9zMLGowxa9Z/vPmp8qi3f0pvSMdANcsg7qBMQ9RXDAX66nBkvCoZIbpdAYL+oJWmWTNU7ybxUddVOEzf9Q5SJsZI4Tz9/iwxZtoYaduWpICAooiTLl/KalskDmK63J1DEJ3UNChEJ0QpERJVHhO0pZGKpVRCU7OOJc45bpaff85T+aFNM3Z0GGOMMfuABQ3GmDXt79/0LDn7rZ/W21Ng7Ht4BZcTVV5EpSBKINL1Z+iuZkZYnkDBbiMOVy5nuz39FkasJud2VZvcbdgwuV3dpF/DZGmpqrRNw2Hzc4zrmoXhEnUTSToJGlY86hYyHOy6B1ilaxo7feg9DT5nQGmkoPE9aCNzssDzzj6O3/7xR9mRYYwxxuxDFjQYY9a8r735mXLulR/VW+ZOZoc7jDkdsS5uZ0cQku+RVCkk4PMIciQUPUZtJkhgGiZMF5w2cWLtWBku3N1jollABMkgKE66YCLnDN7j2ppe6anK9WxfXGRhcYh6EPHd50yqW5xzy/0fyLo8PjOpBU0HskI8WTMqgnihzQlVpecEYo2I0Pg+rQakHnJiscjPPvUs3nDxgy1kMMYYY/YxCxqMMQeEr1zzHDn7ms/qrdUJDHNBz81SMCY3ixRFBdmRssO7ipSUygXyinXkyn4M3Zu2yDwQ7HrcVlQ/0AVHQRyxafFFxfq5ebwvWFgcEmOL4PBFIKVEmyIO6QIHx/JYTGy5eUDTlIgpUc30qZslJCfmen3GowZCjyaDl4KwtJ1HHtfnDZc9iUtP32CPujHGGLMfWNBgjDlgfO3Kp8t5V39SbysfwJZyjpmmZtZlJI0Z50Aq+mQErcdURUaBPJlIMb1ivlzZwO6NIs3qurcVJqKQEFQCquDwzPT6FM4zHo9ZHNfEeoyEgsJ3gUPOuduu4aULGyxpOKAF50kC43ZMEOh5Txo3ZFcSiwG5aah23swLHnky73/x+fZgG2OMMfuRBQ3GmAPKl6++VC58+6f0ungsrr+eZrwAbU0oPaqQUqKqKnIc3+WKtQBYc8CDRsqCd56clTbWhBCYG/TpFd2vtoXRGCWDCD5MR2Yq4LqJFtk20BzIYk64AKCIlIxbRUUgFNAscGRe4JWXns+bn3SyPeONMcaY/cyCBmPMAefv3vQsedKvflK/vnQMZdmnGszTjIcQlyh8ACmIyOS/btzddEk5DRtWluKbA5OIkCbbIIL35NR22yScY938LK4ILA2HjJuWoihw3pNSIuUW77316TjAqXdoagjeM6yBah60pT++nTPmGn7xeU/hRx5ymIUMxhhjzCqwoMEYc0D68ysuFYBN1/ylNnIY6qBQKHxmOF4kVAM05cke/7w8hQKmYYOzEZgHASUh4nDOoyrEnHEKTjwzvYoQAuV4zGg0oo0g3uGdQ3MXQJkDV5sivSKgUQnOk1NN1W7lKaev5+M/fbEFDMYYY8wqsqDBGHNAu/7Ki+WcN39Ex7MbaX2fUWzxReD/Z+/O4yzLyzrPf57f73fOuXEjIiOXyioKqGKtAgWkZBMERFCkAAUFUUfaBQRaNl+4tYKCsqrtjMxIKy6jMy5td4uMu+K0jorL0Li1ItrKIlJQW1ZmZWZE3HvPOb/f8/Qf596IyKysgqIqKyMjnnf9kXFvLHmXcyPrfO+zBDHyfM3lYvWlsbgMSMZPNC9uIQ7D/syMrAUBUqpRM7quI8bIyqihSREBNiczggmEQEG5nY2a7iIxXmrY2JxSVTWxW+dod5pvfNojedtzH+khg3POOXeBedDgnLvo/c2bXyAP+97ftnLggfShYkmmkDuQikJFAoZTS0VJWFCSGeVC3/B97s6tGR1CIdkxY0N1aJOAoY1CFbQURIQqNZhm+rYlpMTq6ipVatiYbNLlTIjVML/BXbTa6YTYjOm6jgcfXeHbv+QJfPOjL/OQwTnnnNsFPGhwzu0JH3zLs+VzXvef7daDD6FlxJjMks6YSqELDY00xNIjNsNizVSWaPIMYKh0kO0T2aH6YWCyuO7Mk+I7d5LszuXOPX5DKHDGIE8L6FZaJMiOzw0rLCMiES1GFFgZNYxSZGNjg42NDRiPt78hBkrpiQiRYXCkmrA9UfRuerZ3tutc5FtPFqtHTc58jHY+R4uvkTOGsA4fFIFoRrShuqjIsEUiAEFt+LoUKDY8f6HriSJYDPQidOHejNb/ha98UMV/es21HjA455xzu4gHDc65PePv3vY18pjX/7IdW7of63GFxlpqemKZ0ZPQNEJKT8yZ1WBMpCbO2yrEdoQLBBYntlsnU2f9XR4y7H46HxRpO3okUkqMx2NSSpyYzCDIECaVPMx2CAIimNrWhhK5O59sC2eGDRex7eDgzAdo+/HajuPO3PQyXJdsaGfKoUIZQodaMyoBDRFCwvqWJhi5FGRpmYkGKIp0PWv5n3nRF1/D25/7UA8ZnHPOuV3Ggwbn3J7yl2/+Krnme/4fu2XtKnKzikyOs1wPAwA3+0wdIqIZSgdxaTiR1HOd/IUzKhtuazuMcLuTiCDzd9sXYYOIUNc1KSUsBTYnM7qSMYGYEmZGyRkhzn+KnZ+wYV8494M2zEhRgilFArp4LYlufYsCKRqhZFAlNWM2LYEYYXqaqw+v8m3XPoGXPP5+HjI455xzu5AHDc65Pee/v/V58rmvf7fd3NybtHqQ0xunqWXGWj1ilnu0buj7TK0dKkPbxNA6sb2lAj5V1YKHDLvdImgY5jfctrphdWlEFYT1yZRZ22IhDJ+XCCKgdvcGDA5YVDcEchgGsybrh+sJ5DAEPEmNMNscno/xATY7ISShXr+Rp97vAN/8nCfxnKsaDxmcc865XcqDBufcnvQ3b36+fMEP/KZ9dBKgWaXWCdZPSCGw2ReoV6i6DUAxASUQdrZM4O0RF7tFuLBgZlthg5mhubCyvExdVdy6vsGs7bEUtlah2t1wBCxaBvZDYHGuyo/brwaRoV0CI84zuxyEIoFoSjSliomcRmx2w6txdf0Gvu7zHsg7XvgYDxicc865Xc6DBufcnvXe136ZAFz51j+3WbNKm40RhcoUrKUNFYFhRkNcrL+UsD2vQXRHmbu3SlxsdrZN7Gyj2AofJJBzJoXIgaVlRlXPZjuj1TKEERLutoDgbm+/2AU+nWDhjM8v2pMsIGZEUdhRxQBGpUN1Qw6RloSqEMsGV4RNvu0FT+LVT76PhwzOOefcRcCDBufcnvfx7/l8ufKt77OyfIRZu8FS6pB+ykZcBhuG0oGB7Awbhqs8bLh4LaoXzp7TsJBSomszQYRR01A3iRCA6Yw29/PlCHdtnsJi28JeCxlu37m2dMzrgxaDMOevs6hKDpFCQlCS9VSa6UOiCzUSAmlyjCffu+G7nn8tX/KgNQ8ZnHPOuYuEBw3OuX3h49/zeLniTX9qYfUSJps9y6mh0RYT2SqVx7ZPk7bsm8F9e8/O1omz5zOICG2XiSEQRCilAMrqygqhqjm9vk7XZXQrfJp/n+1c6/jp3Y79EjKcq7ph+3pBzLYeSxUBKgAi/byRArrQkCURrWOtW+e519yLn/3GJ3rA4Jxzzl1kPGhwzu0b173hSfKQN/yulZXL2bDIqp2ikCgxAAErSpThXVfVoX1i+93oMysZZN5q4Xavs+cz7GRmw3MNqNk8YBK6NpMkcPjAGpPJhM3ZlE57JCRUQIqQwnCslDQMj9wKHuazH0SEEAKqe7v65dwByvaVZgVJFVEi2mVSqujLfPCjGRoSUTuaCDkrOYzoCMQ85f71hJd84Wfx3c98mIcMzjnn3EXIgwbn3L7yT296pjzie37VwsEHMtFlgnZE6eZl3RWqSgqKRCEXAwImwxyHobphaJ8wnxa5p5xR6D+/sLaySl1FTm5OmOYOJBJChdowKFIMTIeRkSFsh06qekbLxn41Go2YTqeUWCEBinZEMwiBJlbkMsMQplmQakzXZca6wcOOCN/+pU/mqx952f5+AJ1zzrmLmAcNzrl95wNv/Qp53Hf9gn38yKNZbiLanSYJSDR6U0qAUjpEhiF1Ygw9FaLbZ6TeUrFnnGuGggAxCk3TsEYgzqb0faFYwQCNBjsqFna2acQYb1NBsZ8Mj6fQzXqsQKqH9aKqhQhIUUruqUJPqdfoaLDJjOV8gmdetca7Xn2tBwzOOefcRc6DBufcvvT+H/o6ecgb3mO6tEKpl+mKQtcTAxQFizWihWDDZHyzBPMNFTu3U7iL37lCBgPaLiMiLNUNVYh0fc/JyYRWMxYDSXZULVi4w5kQ+40JRIk0VUDbnmyZVDdYjJgaWKEzoWs7rN/kaFN48dMeyQ9+6UM9ZHDOOef2AA8anHP71j+96Vp5/Pf8kv3r0gOpDhwlbp4k0dEhWEyYGtEUlbMG283X8rm96TbxQFGaVFFVFSWAbm7QWwGLSBjWZqoMIcPOsGE/uM1gTFHEhoGPWQuVBGKASkb0FpgVkJiIQcg6pp4c47MOZL79+U/h6z73XvvngXPOOef2OA8anHP72vve+rXyuLf9nt1w2ohVjRUhJKHkwpnrLIc/tzcNeDXDXiciSDCKFrTPSIosjxpEjFnbM51O0ZKxEIkxQjBkfoDsh2GQwBnrX4eWiTBf6TnMYiAY1htWjAyEekRMBes2afoJT7vqML/z6qd6wOCcc87tMR40OOf2vfe/7hnyjLf9un0iX8I0LmHa04RMAYoMvyaDZUzY2jQxrOPzqoa9zCgIAYkBtYJpoYoVK6MllqoaEaHve9rcYxaQENjqpNgvp847ZpWc2YIiQ0ynipiRIxATkQ45fYIjdebrn3Q1P/S8R+2XR8o555zbVzxocM454Pde91wBuOKHPmB1FKQ9icQRWSLBjGSGmdCF4ddmss6XTuxxi1YIREj1sJGk9JkqBgQ4fGiN0+ublI1CMcNUh/mQQebv6t/eCsi9QobKhR2Xwbbud0SGAKZOZFNUCmG6yVUHx7zouV/Edz2q8ZDBOeec26M8aHDOuR2u+65HyL1/4C+tXbqSA7rOal5HJbARGpRIoz0NhWxKLzWBYWWfCRTi1pDIndsv9/4J595kKoCAQdH56hGJ9AogpKwcWBoxConT001muSAxYEFQM1AIMsxwKKaIgQTbOhb0Qpc9bLU9bAcEwLz9w0CGwac6r04IagQyKgEjAmMsZoJNqEwpGuniGKkS1p5gLB19CUzLITSMGW0e40uuiPz6dzzLAwbnnHNuj/OgwTnnznL9ax8jD3jjH1o/OsS6rBBpGYkiUci9MC1CShVJWwqRNiQCSrBMVJ2fiG3PdzjzTV/11Zh7RM6ZEAJVVXGgOkCatmxMJ+TOCCkSq0TpM6pKCAEJQikFM6OqKijlwt6B+TyFM0OG4fIQsEQEIzHcTpNIppkPfDQSE/qSKTHQWyBJYGQdebJBWmo4nRukWUI31rlXOMaXP+7+vPOFj/WQwTnnnNsHPGhwzrlz+Jfve6o89PveY+3K5WRZxsomtFNCqol1TVeEmh6TiCEo4TYTG865AtNDhj0jxkgpBURYahpijIjBdDqllDKvgthedWk2rMMMIQzft8ssArFF28fZTJgf5wqiqPbEFNEUoQjaZWIwmjpyujM0rsBsylUrmdd8yaN5xVMe6CGDc845t0940OCcc7fjf7zxWrnmde+yE6sPoBsdoLJTLIWejbZgo4N0WYmmNMxQBCOQw+JdYr2ddontYZLeTXGRC4IQ0GL0bUcMgbXlMU1MTNsZm+0MqrgVLpVSCCkOrRQ5M0x6uLBuL1BYNP4MA1AjAGJGlHZ+fwJaj6FkrO1pJEIUZhboCkQJjGfHePRlS3zXVz6dZz946cLfWeecc87dYzxocM65O/Df3/YCecR3v8tOyIPRNGbWnWRUCZt5CiQEJaoiEuhDGN7xlXnIMO9xh8W7xdvVDB4yXPxyMVJIEHSoUDCjCpHlpqaqKkJKbLRTSumJMRKTkEshhECMESu7cf3loodiUXERtqoYBCWoogJKRc7GKFSIdgTL5FTTpRpKz3J/gq+55j785Dc80QMG55xzbh/yoME55z6FD/zgC+RR3/tuO7VyP9pqjaIdy6GnL4YRaGMDgJgSJW+3R1gYZjIAZ67CVB8QuQeY2VYLRIzDu/7ZFBGhSoG11WUQZTbtKKoMsVPYaqXYnea3yxaVNxCln39mqNgZrlXGCH3bUjUNs5xRBGbr3LtueeWXPYbXPdVbJZxzzrn9yoMG55z7NPz1W54vj3n9r9iNS/en1EtoWafWKW1YopMlBKVmSjRFAZXh1+uismGwG9/Bdp+pKGFYf8k8aBBF1VBTzJQggeV6RB0Tk1lH23cogiDkoshuOA1fHJu3mR0y3DgxI9i8ikEiSiKQCdYTzJBYsWlCNRoT1m/icZfW/LvnPZUvf+jh3XDvnHPOOXeBeNDgnHOfpr9881fKE978W3ZLuYyJNjTREFManWISwAJlq3JhR6iw4yTuzOn+7mImDAGD6rx1QoZqhq3hj0UJIiw1I5qm4eTpDTanE0oJpJQo80GhO+ckiG0fGxd2++X2jIbCdmgWyQiFgDILDSXWSOkJJ2/iBY+6kl94kbdKOOecc86DBuecu1P+/9d/qXzhW3/DPp7uTV8fRKYnWZYOs0SpxnSAlpZKmJfHb5egn5Et+JrLi95ik8T2FYHtiwIihACYIcDa6jKjOrE5mzJrZ8Q0IuuwtYIYCDYMCRWbHzsq5z9sWByDZxyPw9EqwVAzCBVRA8EyWI/FQLaavlqGyUkuCxu84ksfwxuecZWHDM4555wDPGhwzrk77Y++5zkCcOmb32cHx0uU0qOqzCanGY2XUOE2ffiLj7YrGTxk2OvOPgYCQp0qrDFSSqxvTJAYCDFhIZBzRzAIIgSR8z4w9Ow5IYvLsuM2C5AMgihqSg4BJZFVqDdv5uFHG77zy57B1zzioIcMzjnnnNviQYNzzn2GHrna8y+nZmw0hzBRDq5W2HSCxIreKiAQyADYovx8vtbSh0HufYuQwcyQEDAzYoyM4oiKoRpiOptR+o6QKqoQKaWgJoBg99ABIihmYWvhRIBhsKMFQulJoaUrio1WKZIoG7eykuDZD0j85295lgcMzjnnnLsNDxqcc+4z9F9f82QBuM/3/oEtXXYlk+kpqpBIscE6HcrmGUIFY9hKMcxuCCxO59zF687EAIuhkSYQQiAAayvLRIxJ21H6HkuJEBIiMp/5cA+FURbYnkxpW0elqRBiTYlGL0YpwOxWrqinPP+Jj+Ttz32IhwzOOeecOycPGpxz7i765Fu+SB742l+zePhKSr1G104ZpeHk0gg7QoZhRSB4NcN+svOpFtsOHUSEtQMHGLUtG5tTNtsOqQLEofpBRO5gK8TdePtkaJcQA5NFJYWh2qNSk3NAUqKanOBzDirf8qzH8/WPu9JDBuecc87dLg8anHPubvDRH/hy+Zzv/TU7NbqUUI0ompHbrV7waob9QOfDIsO8bWJhK2San6qPRiNiqCBusNl2qCoxDdsszmfAMAQLIHbmqFITQShUdaRXRQg0m7fw9Acf5Dde/TQPGJxzzjn3KXnQ4Jxzd5O/e8uXy+Nf+x9t89KHcLJPRFNqzSigsuh8n28V8LBhX1gMhFysvQwiWxUNhEjf94hBVVWsrawSwiaTrkWtMIyDPN+VDAC2Y7uFERRMAn1WkmaOlHW+9olX8yNf9WgPGZxzzjn3afGgwTnn7kbv+4EXysPe/LvWL10JmhF6oio5Dr9uaytAoZNA9PaJPe+MzRPzlZUwVDhkKaSUho9zJobAwdUVqi5x66l1kPO7mUQREoVgkENEgUghmFKoyD0cWYp851c8g29/7GEPGZxzzjn3afOgwTnn7mYffP0z5Qve+Mv2sdH9WK9XOZBnrOZ1+qpmkpYQE5b6DpWeQjVspBBFTOdbKQImYcccB698uFjt3DxhgFKGTwgk3TF6McwDiQLjOGLpyIibj99CJs+rISIlGwQhzMMJKzrMcAwyfDw/XmQ+2FEXQYYKpWzPhYgiiBkWKooVBCXlKRISbbVKl41mdgvX3jfy3c97Ak95kIcMzjnnnLtzPGhwzrnz4L3f91XyBW/+NbtB7sutLDFKkbrfYNU2mRahrZYRHQbwBTrMhnDBCEPgYItw4fy+q+0unE9V0HL48GGmsxnT6ZRiRohgCKoFM5Agw5gHY9gaIYAaaEYJxKZhMpsRg1AFwVRAhA5BCYx1E4DeoDSrZEvY5jqXhg2e97j78c4Xfp4HDM4555z7jHjQ4Jxz58l7X//l8qQ3/Yat11fSNgeoUOp8GpPEJIBpIpIBm28X2A4VtsfzeTXDfnD2FhIxqGOiGi9TpcTmZMas7yAYIgkY5j6oKVgZAioJSAAzGQY8qlGlRBUjWnoU29piGSJI7lASFhr6XkBnPGg588ovuoZvfdrVHjI455xz7jPmQYNzzp1Hf/qG58gX/ODv2YcnLbNmGbNlonbU/QZKxAioVIgpgcUKzHO92+3DI/cby4UQI8ujJUSEslnoi2JWhvYIVWw+MHLYSKnz4oY4DJ3sZtQhkq1QEGJdD5Uy/ZSoRlst0/UAiTWZ8cjLIq95zlP5ioesesjgnHPOubvEgwbnnDvP3vvdzxCAe73pvZZXLmOFnmp2CpFClgA2b5kgD4P4JGxtBDhz8SDzygfO69pDd89anNXbWddVdU3f95jCuBkRY+TU5gZd16FlqIARiUPoMD9eiikmEBDqVIEomhWpa9QK2rWMAlQxclJHQGbcnuJZD7uEX3rJkz1gcM4559zdwoMG55y7h9z4hi+Qe3//H9p06RA5DZUNAIEMDCsvh5Bhe7Df9smnBwx71blmNRigqsMgSEBzoY6JI2sHmU6nbG5u0mYwVZCACFgQBAEDFaMtBiFADEOAlbthEGS9zPqsJ+kmR+OUlz37UXz/F9/fQwbnnHPO3W08aHDOuXvQ9d//VLnqDb9j7erl9HGJRluStkCgDwElEAAhYwTObpmw+eng2T39bu/p+56qqoa2ia7DzGiahmppmaRwqiuUvkNVsXldxBBMDJclVWRTqiiU0pGqBghsbswwVZ54pOfVz/8ivvrhax4yOOecc+5u5UGDc87dwz70pmfJo17/y3Zs9cEokEMctk9YRuYDIc1/Pe97MSX6nIkhkFJCVWlnM0KApaUGq4XZBKbtDFXDdAiibN5wE6RQlZYYKzqEEhpsuslaOc0XXnMVv/pNj/aAwTnnnHPnhf+frHPOXQB//eavks/9vl+1dvlyTskSgrKsU5JmWk1YM8JyRshD6bwMAcSZay99OORetmidUDOwoYQlhDD/HNTBGB88wMY0cevJk4gFQqq3RoqWfkYTA33OSBxRJhMuYYNXPPMa3vish3rI4JxzzrnzxoMG55y7QP7mjV8hj/ved9l07WqmVkEqWDulrhOTUuYtFPO1lxaGQZCiiAVUvH1iP7CznucznvKSIQqjKnFwbY3prKPNPaoQq4TUYyZqBBGadsKDV43v/Mpn8G8e4a0SzjnnnDu/PGhwzrkL6P1veYE87o2/ZbfUlzEpgSgNNYJYhyDzOQ3zwMEUIQwrDD1k2Bfu6HmOMWKlIAxbKUKsqGYtbTelLT1daCDUjLvTPOW+S/zWt32xBwzOOeecu0d40OCccxfY+7/vS+XJP/Aeuy7eixJHdN0pxpXQZSFLTUBJ1qMIRhrWF1reCiHc/iQi6LxiodiwznK0EpnNoN+cErpNLhsJz3/clbzjqz7HQwbnnHPO3WM8aHDOuV3gT157rdz39f+fycHLqJKg3RTCGCMCipgSJNBJIBgEjHKhb7S7oEopiEQkRKQUrCixqqhHKxzQwIqu861f9lhe9dijHjI455xz7h7lQYNzzu0Cn//vftZWVh4IdKCFEOp5xcJ8tJ8EFCEYIIp668S+F0JADYoNQyNjAFPFiIzqmquPXs5n3+fIhb6ZzjnnnNuHPGhwzrkL7CGv+mm7SVeJ3UnWcs/a2iGmWcEg0iMGhQiAkMGYVzq4/cwImCkUI8SIxIgVJQEahQ/fvMFbfukPue4LH27f8JjLvKrBOeecc/cYDxqcc+4CesQ3/bB9dPxI8soBxt0J5MRxNMOBy66gn54mWMGIFElEUyI92DC7QcgX+ua7CygjVElAjWIKJRCskKSnyIjN5ih/p/AD7/lnrrv+Fvve5zzMwwbnnHPO3SM8aHDOuQtk+RW/YnHlISyHDtpjiAi5OsDJtjC7/l+58j6XMtmc0c/bJ0KqKBnUMikqquf4oTK/0haDIhd/nuuL3cUsWaZoAgsEMoGOLDVTIkl7Dtgt9ERON8v8h789wQdO/o39l6//XA8bnHPOOXfeedDgnHMXwENf+iOWlq8ihCEIsAAGmBlaCp0q133ieu59+WVQoGSl9B0pJUJI9H1PrGqGYQ07QgQ71yYKDxn2IpWAmAKKAYWEmJLmz3ehIgosh8xM4K8+dpxn/4f32nOvuS8ve9IDPXBwzjnn3HnjQYNzzt3D7vvSn7ZPjh7GmvTAEC7AsK4QhGBGMZjMeq6/+Tj3ute9KGVGMUNLDxKpqgbFEBHsDgdDesiwdwWETDDIYYgXIhkxxUgUqwjWUWtLWhqzwWHed3yTG/7sE3z0FPaDz/awwTnnnHPnhwcNzjl3D7rixW+306sPIlYHoRzDzDCzecgAIsZQ2yCUGNmcTLnhhhu4/NKjTKdTJFZkMwgMKw0v6L1xF5ZiBHQeF2zXsgQgEPsPMyUAACAASURBVGPESqBYpJ3OoKlpVte4cQK/8jfXc/z66+ynX/oUDxucc845d7fzoME55+4hKy/9GZPDD4YCq+0xqIZBfsxDBp0PXRiqFIwQEgi0bcuxm2/m8JEjZAMkMmtnpDjfPCF+rrgfiQ1rTw2GFgpRsCF4EIPcTUixRuqGWjOWN4i2SW4qZrrCH9004alv/xN7ydMfwQsfftAPIuecc87dbTxocM65e8DKy99l3dr9sX7GSsiMU2FCg8l2sLCwVd2Aomooxmbb0R27haNHjyKlZ3WUmGY417BHm59ontP8ZPQOv8ZdlMSYV7gEQKmqiBp0fUEojEJBSsYkU8dl2tEhPtpO+Pe/9hf86/UPtNd9yYM8bHDOOefc3cKDBuecO8+WXvFui6tHqLoZtRSCRI53PXVtGEbcOuEP89aJ+UmjKsGGoX9DFUPH9ddfz70vPUJUIaTx0HpRdKv9QkTAZB4knDWfQXxew15y9nNs89BpUd3Q56EVxzQjIZDjCAJkzQSd0giUKrEej/Kzf/4xPnZs3X7qhdd42OCcc865u8yDBuecO4+Wv+U3zcaHkH6TpnSk2LCRhbi0RtKeogVkUcUwhAUqYKZECUgKCEZfjBATVgo33HgzRy85TDM2eisU7IxZDSLG7U6ItMXJ6Hm/6+6eclaVijBcTilgmklVwiTRqpCBOkQoEypdB2uYaUVcvYzf/fBxnv72P7KXPeNRvOCzD3jg4JxzzrnPmAcNzjl3Hlz9Lf+33RgvxdKIWidUliE0tCRihJBblO02iUXrhNkQGoQw9N4vIoQUGOriQ8RMuPn4aQ7nzNrBw3QYs1JQMxAlYIiAIhhhO1SwsFX1sBhC6S5eO5/XnZcXlQ3MZ35kFWw4Eqjn15vU5NAhajRSaNspae0IH1i/lbf++l/y4U8+wF779Ad42OCcc865z4gHDc45dze78mU/YTcuXYGEhnHZJFlPloo+VgAk67eugx0niIvtAcb2JoHbZAEBk4ACGydPYQUOXXKULveEGACh71tSSmf87AUPF/aOoQZmGAi5cxjkcBmGuR1haL0BgmUCBTVBJZGlQgzqAEEKOU+ox6vcNJ3xi+/7GB+/4RZ759c/1sMG55xzzt1pHjQ459zd6MqX/ZTdMr4SYqKxKdEMlYoiNUIhmiKmZIlb32PnOJW7bcCwMJw8BmBWoDu9TkE4evQopzfXkZBIqcZssS5TbhMu7Fyn6S5+Z8ziEN1R2bCgW38qsvU9okZRw6olkA4pmSYoVR1Z75Z5z0enXPujf2bf9EUP5wUPW/MDxjnnnHOfNg8anHPubnKvF73TTh+6mlnuORQ6QunpQ0WWimCFWnsEJUtFlkSy/Gn81GGDwJmGk0mrx+Tccfr0abDC0aNHObUxJTQNuQyl8qDD3IdzhA3u4maA7Ph40UKxqGxYHDsyP35UFv/kK8GUKgRyMrrcIzGRghByTxIjjpaZ6DIf3Ox426/9NdfdeKV92xf5VgrnnHPOfXo8aHDOubvBFd/0DttcezAmsJYK9C0aK4qkeSXDECpkqVAC6eyNEDuI7axyuP2vK6VQVxXWd0wmE44dO8aRS45yctoSQ0VAYd6GIRIxK1vl9m5vWIQNMh8GCbodOCyOncUMB7aPKyPQdR2hrhE1KC0W4/z4NOinjOuKmcKp5gg/898+wQc/frP9zIue4GGDc8455z4lDxqcc+4uuuKlP2nHx/cDjFF/iqSGpRFtiICSrCcAvVSoRJIVKm3pQzX/CUM7xKeyM4AwgVqEvu1omoq+azm9vkFR4+DhS8hZIczbJmyobThXG4W7iC1mMhAQ0duGSGfNbBB03mYxzG2I1QgDUjSiCW2fybGBWFPJjNCeZkxgVlY4UV3CH920yXN/9A/s5V/8CK797Es9cHDOOefc7fKgwTnn7oIrvvln7fTSZaSlMWW2SYwBi5FZLkiIxHnlgiLD+kEM0O3NAMDZIcPOmQ0q2/Mazp7lUErPaFQznbakukaLsrk5xcrNrB06iFkECfPhksPt8LBhD9lRuXBnn9FhjoPR527YcBIjVVURVMmlBQGLI5IZtfQoQq7GfHCj522/8Vf8/Ylr7DuedLmHDc4555w7Jw8anHPuMyTf8idWLz+AVNap+nVSFZnmCASaGqx0mAQKFQgkzQSMIpFZbAjkOxj6+Cn+blMkDOXvqa7ICk3doN2U9fV1zIyDh48M4caO1ROLWQ3eQrEXnGt+B0MlA7CY0rEYFjlsn9iubkilEOuaThJtbzQYjfXEPMOWVpnoEkmMJWYs55PktMysWuUjZcT/8YcfYvLxv7A3fO1zPGxwzjnn3G140OCcc58Bec0f2FqcDud5EsACWqCa98nr4noYZiXAPHQYfHqDIG9/+4RJGKod5n9HCkOFg6ZEiIlpn5ndeCOXHj1MParoTekN1ARiQi0y0rK1gcKCUFTP2Eaxs/JhZzBhMswEuKP5Ee6ecDuP/46ZDDvt3E5hQBciZEPoqeY/bSYJqhXIRk0LQEsAWYYCNbPhB1Qj3v6hy/njn/pbe+XTruZ5D17ywME555xzWzxocM65O+mSV/2yLVerF/pmfIpqiAAUbj52nMOHD7K0skzRjAlYydQpYAhmwDm2UpRSCGG7pWPnZ4cCCQ8Z9rtD48hHrj/O//orf8yNT/kce8UT7u1hg3POOecADxqcc+7T9uBX/bx9jMtI6RAHbJNOdu+vUBMoBZJETpw4yUEJrBxYpu97VCHPZlDXwwJMVcwMMyOkSECIMfosB3eHpEyQ8RqftMAP/+4/8o/X32rveP7DPGxwzjnnnAcNzjn36XjwS37crh89AOoxQTfYre/oB1sMkAykFFHNQOSWY8cBOLx2gM3NTWoxJpZJkkAEQdBS0FwwkTOqGZw7lyANfTEKgbh6lN/+4DE+ecuf2Uue+kiedfWKBw7OOefcPuZBg3POfQr3f9lP2LHx/TEiB/JJqiTMNN6mB363WLRUZC1UsSLnDhHh5PETaN9xyZFDtG2LqGGhIECMkUA6o7rBuTtWM6InxZa2QDda489varnxd/+ej9x8H3v1k67YrS8R55xzzp1nHjQ459wduP9LfsxuGl1JpmKkm9Shpy+REhrSrt7boIQAbT+jqWpyzvQlM5nMuFmPc/jQGrUMbROqhhrEKgFha0Ckqm5tMNhepejcnClmPZp7aiIhVdh4hY9MWn76zz7KdTcdt3///Gs8bHDOOef2IQ8anHPudtz3JT9hJ5cfQAiBtdBhPbShwSQQd8XShTu+EWZGXdfM2paUEnUaMZlN6bWgAqura9SpQlXpck/uDCQOAyNVh+WIHjC42xGZos2IThskt1TtJsspMk0jbi6r/Oo/TvjYT/w3e+nTP4enP8i3UjjnnHP7iQcNzjl3Dle8+J22fvBBFAss0VJmG4RqiRxqVJVUepB4oW/mHVBCEPq+pWkaIJBLIdUNhnJqfQNRYby6QlVVRJlvoYhs3S/NZas95OzajWHF5T14d9zuEwvTriXUq6QqIt0GSVvMDA3LTOpD/MWJTW569/u47ikPsRd/nm+lcM455/YLDxqcc+4sl73iF226egWYMrIOQ7F6aRh6Z5kowK6Y0HBHJRUBMyXGoWIBFJHtz8WQOL25wazvOHjwIKPRiL709LkQqoiqEkTmcxyGb1zMbZCwmOHg1Q77Wa+JKkToO0yUPkTKvApmpC0aC7lKfKRb5kf+33/gIzeftrd+2UN3wwvHOeecc+eZBw3OObfDyivfbbJyP0p7mrG2AHShGtolLJO0DKsjd3U1w8IdBQEBtcKs7Th5+hSHRKjrCii0fUuVGswUlSFgMAEEYgCRgJVyD90Ht1sVKpIp0VrMhBwSvQSSKsk6UteRqhEsr3B8Ivzc+z/GdSdO24uf9gi+8ApvpXDOOef2Mg8anHMOePR3/Lz90+QQXXWQ1J5mREcJgUIFQLSMGOQQgYCYDiffFzGJDWKFyfoEycra2gFGy2NCUGZdS4wRiUIQIZcyr3KIiA1tE945sb8tYqwigs0vRRuqZ4okYhQkZ4wNqihw8HJ+/19O8JFfei8vfPrj7RWPWrvIX0HOOeecuz0eNDjn9r2Hf+vP2j/NjhDHh1nWTRqbkhFaaTAilfZEerJUZKkQg3ThJ0HeZSJCkERVQdt2nDhxgktCYDweY1HpTcGEosPXishQ3QAkCfSeNOxrwTJGoEhNsOFytIwJZEZ0ZjQRovbUYhSr0PFhPpl73vGev+fUDSv22mc/0sMG55xzbg/yoME5t6899OXvsA/LpYTxQaruFLFsYk2inb9Dm6wASpaICgR6AuySaoa7tvpCzDA1QgiY1OTccfzYLXD4MMsHVijtlGJhmEZhEMPwmJgKhuA1Dc4EAjqMLDGlSBiqGyRTRwCjKyBEgvY0BCRVzEri5//yZv7upr+y//TiR++KV5Nzzjnn7j4eNDjn9q0rX/lzdrNeSlw9TFU2GKcOixUTq8gGI8lEylYlQ6Cn1h4DemmGE6wL6s7//brjlC6UHgiogsRArBr6vuX4iROoGSsHVmg102XFTJE0/JNhIpgIqAcN+5kRhjYa8tblIsMxEumoJNP2PTJapeRIyB3jSsjtBLHIrc1lvO+mnqf8yJ/Yi558Fd/42Ht54OCcc87tER40OOf2pQe/7Mft5uZyqqURSTOUnl4MUkXJDNP0rVAYZjIEG7rQiwzv6l/4kOEuskAKionQF6VkZVTXiCpd7jh+/DhVisQqUQchK+Q+k+oKw2sZHEBAtl4HAQjbrwsL9DnR1CO6WUcKFYTExrRnVEcShXEw+gwfm1T86O//Ax8+dtre8qyrPWxwzjnn9gAPGpxz+879X/yj9vFDj2ZZTjDqZ6TOmEmiH63QtxNWY0BzSx8bVIRkQyVDkUgfGgSoS6bs2u2OymJUn9jQXrFo9Qi2XdVQSo+FSEo1mpW27wkhEqsGSsf119/I4cMHWTmwCiGgKKqKmWC7o3fEXUCCDqGTJLAhdEg239QiDRaWKbMZ4wCUCTmMyc0Km/TUoqz0p6CuWY8NN8gqv/jXt3DLsRP2E9/weD+4nHPOuYucBw3OuX3l8Mt/wfojD+dgPoki9KGinwcGsZ8Rw3zIYYwEMmH+1v2wbQKSDWXiuzdkgJ1rLU1uW3kx3CfFYgOAqpLCIoCYnzymBME4ub5BLsbq6ipNFWlLgQCFTLB56fx8SKSIICjBoNdCCGm78kEUbFc/aO5OWjy3Mt80AezY0qJQNiHCjASSACPqhOGVFFgPS0jONFVHmm0Q0oj3fCLzhB97v730aQ/nxZ819sDBOeecu0h50OCc2zfu96IftergA8jdhJ6OGOoLfZN2lXBGP0RAyagap9bX6Uvm8OHDNFVi1nXEFBAM1SGoEJFhqKQavSopJcpF3l3izq8YI9r3aK9oSEhqqOoRNxy/hR9/9x9y8+d9ln330x/oYYNzzjl3EfKgwTm3Lxz45l8yOfjZxNIjOiE2EfMT4dulAhYidZXQ3DOZTFE9zqFLDjMejZh2U3KBlBKy+KdEFIIQY0L1rK0UXs3gziIiJAlYKYRU0+aMhEC1cgnHZ1N++r0f4UM3nbaf+TfXeNjgnHPOXWQ8aHDO7XlLr/iPpiuXYl1hSSBWNUa50Ddr1xMRupJJIRIrYTabceLYLRw6tMbKyjKbfU/fZ6pKEBFyLkNlQ6zIpWe+GNO5c+qLUcdEFAhBQIRp22EaCVVDiZfwxx/b4Ok//F/t5c98DM97+CE/oJxzzrmLhAcNzrk9TV76LhsfuTdsnmC5qcglILGmdC0SL/St272CQWGYu1DKPEBIibZtOXHiJJeIMD5wgIlOyF1PCIGYIqUUSimEEO54/aXPbHAIRkAxcjsh1TXLo4TmjJQWiRXrlvinfJg3/ebf8T+uv6+97kse5GGDc845dxHwoME5t2fVr/xVqw5ehk43GAfDuikmNb1CJYlysa+oPM8iQpCAxSFsKCghJkpRbrzhGJeaMV5eIafCbDYDDaSU6LMOQcMd8ZBh3xPL9FpoUhqGkWoZxphqQTQjmjkwXuVUJ1xfxvzc+z7GJ4/dYj/2ws/zsME555zb5TxocM7tOQ//tp+3f5wt0yyvEGa30EjE4jImShKldD2E5kLfzF1tsU1iNplSNTXVqCHnjBXFEAw4fsstHBVhtLSMpopOFRG2WiYWGzDlDgob3P41qgJdLvOhoQmTMqxNDQlLI1QzZbrBal2TU8WUI/zOh2/lWW//ffvGaz+fr/KtFM4559yu5UGDc25PufqVP2n/wr1Iy6uE9lZWk9KVSKGi61vGlQzvupeM4O+q35FSCuPxmL5kptPpMPgxBkouhBjoc+bYzcc5eFhZPrCKdjNylwlVwub/LVZtLs4IF5mDiQcQ+107nVA1I7LN5zWkGkwxE3oNiDQ0lRDLDKMlp1X65SN8qJvyg7/xlxz75FF75Rd/locNzjnn3C7kQYNzbs+438t/ym5eupJKAk17mhgCM6uwmBA6RtEoBipCiH5+8qmEELbmM9QxoYCZbbVFhFjTdj0nTpzAzBgtLxEqoViBEIa2iwIxBCJCrwUzG2Zj2HYI4fankCpKGdKmFMKwJtUAjCAFDHoLZKkBo9KWIoFOKo5bzU+9/3r+4djEfux/ebS/mJ1zzrldxoMG59ye8ICX/ZidOvhQchHG+SQNhZ6GPiwhFBqdApCphgF0ogR/R/122TlO3c5+vIoN2yhy7rn11pOM2xkraweo64pZ16MYMVSUUshmVFWFUCiqiMgZ2y/d/mM7giY5a9dssOH1WSTRS4NgJOtotKeI0kvDqdG9ec8/X8/z3vEH9rJrH8W1V/lWCuecc2638KDBOXfRu/JVP2vHlx+IdR2r1hFEaENFIZGsR0wpxK2T52iK+inJXaICzOc4LDZTTCYzVGDlwCqjuqbvCn3uho0UVSSXHhEhLiol8LUf+9siaDj3UFYVEHTrKDESRQLBlIqWrovI+BL+6vQ6r/uVv+ADT/xs+84vuK+/sp1zzrldwIMG59xF7fJv+BG78cBDaZplljdvYikop22JLoyo6ahKi0qikxEmbAUPw68/3zqxsAhe7kyVR9CCzlspQkqUUlg/vYliHDywRlM3WGsooGYU1aGNQhJiUPyUcF8z0R1zOs4MHVSG/z0JlklWUASlpkgkUoj0jHQDqjGb9RrXlWV+8g8/zCdvuMX+96++xo8s55xz7gLzoME5d9E68k0/buHShzBmCd24lVQHWoVCICAEA5OAIgg2bFKwc7cFuDsn2DCvwaxgNlQoKAZBmG22HGuPcfTwJYyXx0zbGdO2pW4axAJ939OkiqLlQt8NdwEJyu3N6Vi8To2AzsMHIRMImAxtO01d2Jiepq6XqdISna7xGx88zkd+/L324qc/iq+4asVf6c4559wF4kGDc+6iFP/tr5tc8lDSZJMDnCLUiY2+QGyoBCgzCJFOlkAyUTtgHjxIANRnBOzwmcyrqGOiKzoEDIufEwKmRukyJ06c4JIQWFoaDY97UQwdhkz6g+92kB1H0ZAOZMSGyoZCIqAEy8RFdYMkZhhN05C0o0xnUC+zuXQJf37zBjf/9t/xr4++r73myVd62OCcc85dAB40OOcuOuOX/JI1y0fJsykrowptC1qUpl4ll45oPYahRAxBbB4ssJgtEAjeNnGXLeYzICApIirz2QtCSpHpdMqxE8c4cuQo49GIyXRGNiWmRDbFzwD3N7Gwve6UIWCwnR/LMCQybB0oAVhUwSi5BLBMDIFQGb1OGVVjYlrl4xsT3vlH/8B1J07b//bch/uh5pxzzt3DPGhwzl1Uwr/9bRsduJzVcoJYeqZtRa5WsGLUbcsoKB1KHwJBlGiKWKBImp+4QEARU0x8veJdUXImSiRjqAIYIQzzF1R7mvESm5sbmBmXHLqE0dKItuvpSodUNWQPe9y2rdBBhsGPMFQ6BMvAUN2glkAUIdNYg0ik1Z4cExGhKRMahVlVcTpezn/5wDE+ceMf2aue+giefPURDxycc865e4gHDc65i0bz6t+08ThR5VMUqWirBoCoPQhoBS0BqIdfbvMzFxMdOsF3VOt7yHDXlTictwmyY6ifDieKEimd0tQrtLOOm47dwiVHjzAajQhtxtoZm80yCSOWglhAVZEISsGCYCZEXfTyD/36JgExiJYp/hxe1G6veWY4lnTH14X59cp2y1PAmFGIiESakgkovdT0EgjWcUgzm2HMn95a86Hf+igvenxnr/78yz1scM455+4BHjQ453a9R33r/2mfkCNUdUPpW1IMFG/x3/UWrRUxRnIeZjasra0xGtUENZZsRlHBpEJCAnrAqIKgucckYkSUengX24Z3t41ADmFHuOH2IxPZCiWMQCGcEVLMup66XkIEbp0Vfu4P/pZPfvIG+8EXPMrDBuecc+4886DBOberffZr/i/7aHsAWRoRSk9TJ8yMXIYRcW53K6UgAjFGuq7j5MmTrKyssLy8zFiUmUGnSkmFmCKae/q+UKeE6rAa0wAszMvooQRFSUSfs7GvGQERBQtbFUqyNfsjEOslSv6f7N15nGVVdff/z9p7n3PuraEH6KaZJ1FUUAQERVERBXFGHBNHiKAY0Rhj8hhl1pjhSYxxwCHR5GeiMYM4JGYwmmgSSdTw00RjHKPI0N3Q0EPVHc7Ze6/nj3NvVfUADXRDV3et9+uF1fd2d1lV99zTZ3/P2mvVBF9Qu5LbysP51Pc28r/v/xd99bNO54kHW5sQY4wx5r5iQYMxZtE66sL36brOoYTpZeRmBq8Zj2cwbCiKYk9/eWZnnLSDRVPEOUdZVNTNkI0bN7ajMScnKYqC2NQ0cYiUFdl5UoQgFYmmDRcYTQwhEF27oPRqIcNSJ6MtFONfj8fWKu3WqOADkhoKp8ScaVSp/TRfX3s7l370H3nlmQ/RV5xyoIUNxhhjzH3AggZjzKJ08AXv042TR6Chwg16lNIuVrVRvAQcnjzXgd4sRjlnyjIQcTR1QwiB4AtyzmzZPMOwTuy/33ImO4HZWqmbhiJ08WVgmBIibhQutXskEm0lgyPjFZItEZe08ZSKVlvt0oYM7TOpiZRlSTMcUHmh1EwWj5vaj58MG97+N//Jd9Zu0t945rF2JBljjDG7mQUNxphF56AL3q+9FceQNVBJJNDgUDQrqkoVCpqcsJ0Ti5tzjkFT4xF8Ecgp45zDe0/TNMTeLJvILFu5jE6nizQNsekTnKcUyCqoOOJo772QCVoDbtQI0qoaTGvrpGD+eBkMElVVQW6gmSWEgpjAlR22cAAf//pPWHvrRv2jCx5lYYMxxhizG1nQYIxZVKYu+CPVqcORnJnwNaKZOrd79p1zpBjJGUQ8eqd9681ioE5IdcI5T1mWRInk2L5mIZS4XDMzM0NS2G+FMFF4hjkTNbV/PiaSQpQCBIJmgipJMkmCbZ9Y4vROfj3u0+AR8J5hHQmhwHUCsYlAQ6lK5R29iQP4h1sanvju6/Rljz6M80851AIHY4wxZjewoMEYs2j4V35Cy1XHwHATE7lPzpnaFfjOBClFYlbUl3jnyLEBsTXBYqYx0S27xBip63bri/i2MkVEaIoCKRyzW7bg6yGHHLQa3+1yx6ChpyVOEk4jhQ7I0lY3NOIRdRYymJaMjgOdL29qzwoZEEQcoaxIKgxjG3pV3pHrAVWTiH6a2WKK/54Z8Huf/w43rtuglz7jBDuxGGOMMbvIggZjzKLQufiTWq48kNTbwIoKUlTUVYg4NEeEjDoH6sg5I6KoNY1f1FTbrS4htJNC2tdNcIUnpUQtBT61pe2D4YC1t95Bd/kyJpftx4bZASEUVCgu9/EI0XWoCZTe4eoe2fk9/S2aPU233z+ltGFDQtpjMLW9XMLoN2OTQUqSi5QMCC4xkIL1aRV/+B/r+eHt/6Z/+LJH28nFGGOM2QUWNBhj9rjuJddqmlpJVW9hZWho6kwtHaDAa0JIoDJqyZCxvfl7B+89MUYARIQQ2n9ymqadGlLWNSJK9oE4sZx1/QEr4gYOSj0On5jkjuwZuopQLMelGlKkFKVpaiaqam4bhjHb0gUNXMb9GpxmsiiKJ0mg7wrKPEM57INUDKsVbNYD+Pz/buBJ7/y8nv+kR/CSh6+2wMEYY4y5FyxoMMbsMcf/8if0xtmEr/bDNbMUeYArKppaCVWFakaIQFs2DyDaLlyTtNMHzOLlvR9NnihH2yfqdvLEqMJhOjfEosMmLajFU7jMSjbyktMeyAkPPpb3f/oLfK+/nDvychyBCelRuAbvhV5uKOyfMHM3yOg8kWU+fPCaGajgpKAIBU4zIfWZqioat4LvDyK/8Vf/xQ9uPkyvOOeBFjYYY4wx95BdpRlj9oiHvfYa/bYcw4pJodvMgCaSK7gjelzp8LnBSyLThgpAGyzYlom9RkoJVaVpmnbLhHM4BBSaZkj0Bf3siDkyIbMct0p547lP5fknHCgAZ7/uKQCc8I5/1kG5P72eUhUO8YKojTY1Ozc+UyhurspBiHgaprxnmAMzEsi5xjcDqtzgCNRhig3a4Y+/+hN+ctNa/cjPPc5OOsYYY8w9YEGDMeZ+d8SrPqDry8OpqophfyNeMuoCtQTapUEDRLI4knhQ5qoXlHZfvlUz7B3KsqSua0SEwjuGwwHBObpVxW3Z43Jicng7zzn5MD7yqjN2uJj75psfJ6de8WntV4cwWyyjjH0mpWFoOyeWNJV2W8Rd/pmFD+YaR0JGCM0A7zpE70FKgjpEG1ysKZkhukAzsYovr93MGf/3H/Tic07hhccvt8DBGGOMuRssaDDG3K8O+blrdEP3MHK1gon+WoqqIrtJ+k3EOyG4BlKN+EBSD+pwRERBxZFpt0yIxrntFGZxyjmjqnjv2zGldU0ZAkURqAdDsiiHdOHCp57GW8855i4XcF+94tly0lWf1bUchAsVkpr769swi9TOQoatgy/ZhwAAIABJREFUtT0aoK1uyBKINFRB8AxI6mjUUWug8MqEb8iS2FQrsbs/P0yJy//y3/jRzUfrm8+2rRTGGGPMzljQYIy53xz4ivfozIpjcKEkxA10Ks8gJeoGiqLA5YY0HOKKQGwE8W4UKsx/DjdqBmkhw+IXQmjDhbJEUyY4h3PCsD+gaRqeeJjjgmc8gRefuOZuLdyuv+yZctpbP663dw5lplhG0OF9/S2YfZAAKGiYIGlCYgM4xJd4H5AsDOIASHSLgrqZYZgdw+mD+fBXfswNt27Wa158soUNxhhjzF2woMEYc784+MW/oTOrT6QOk3TyHUzrRjblFTgXKB34OGi7w0uXnANOFKeJcaiQcQsqGZirbDB70vjnv+PQJ6VEURSICHXTMNntMuj1SCnxmMc+ms+//Mh7vFi77m0/I8df9mld313Ffo0FDebuUQEltOcYBZFMLSUaI0Eczns0N2id8b6kcZPUolRas0IHRBybY2Cmu4bP/WgLT/rdf9PfenzJSSedZIGDMcYYswMWNBhj7nPu4j/TsOYUluU+y+obGapjY7E/hSrjxWryfsHfiAjj/dVu9L+jsmfZ+rHZNeMAZ/wIHFnAzVWRuAVxQkZ0wc89N+AqkgRyjhReyDnTJKEKBU77hNzQ5ECaXMP6QZ/9QuKNZx7GZc+75yHD2LeuerY88Vc/qt9ccSLLiEzlRE41KYB6B1khZ5I4kjicOkQzQkYFUEd7XNkxtFS0VVHjc0j7XJFqECHhIYHgwDkabaumSm23WWzRLiJCpZFSG5JzfH9L4me+GPiZDTfpFWcdYmGDMcYYsw0LGowx96n9fv6j2in3Y8JlmnpADh7xFZUWZOo9/eUtcW6bwGYU4my19z3jdT7kGU8AQTJBSpqmJgQQ72lSohBlwiVSqom+wxCHoPjbf8SJq0p+8YVP5iUnrtrlhdk//tpL5bS3f0Y3uBXcFlYQXMlUnqFKDf0sxGKy3a6RayCTxY3uaOfRuMM8N4XAmLsiIts9ds7R789y7XVruXXtT/W9L320hQ3GGGPMAhY0GGPuM5Nv+JT23CqWAVL3kCDULkBSQhxCYdfmi0t7l79tvNk+I5pxo9qSrQZKqmOomaqoCA6GzbCdDuIBzaj4doqICxSbbuJZD13Nn/ziU3frC37dW54lAAf/1vVaF1M0wyFFzgh+9A0ITtvvKY+237R1MxkV3WYkgTFbExFUdbvnnGsDqlAom1nN524YcPa7/kVf9aTjeO7xK+2kZowxxmBBgzHmPvDIN35Y/6deQVOtZFIi2vTIXiB0QMF7pQhCk6x0fc/a+ucv2m4t0AVLJRVHM7d9ha2ac6ovaZohkhKlKLh2q8JQAvgCH4eslA287CkP59eed8J9tgC7+U0nydHv+HdNvktPPZprJA5w4knSftWimcD81IGEw9vWCXMXtg0ZVBURmatwECcMm4i6ih9Hx+987ht8/6aD9P885cEWNhhjjFnyLGgwxuxWD33DH+iP6+WEahmd3mY6pZJKT5SClBRJEVxmSMRJtae/3CWu7clwV4/bLQftc1nbbRRtjYADjYgogpA0EbMjuYCKo6hnedBy5TVPP53zH3PYfb7w+tGbHyXHv+2LuslN0+1OQtOD3JAoUBwCOI0g2u7Jtx4N5l7YKnxQmHY1Ip5e7bk5rOJPvrmJn2y4Xq/5WWsSaYwxZmmzoMEYs9s84OIP6E3hYMLkNK63iUkfabIyzAkNjpAdQXw74jDbIm/P27pHwfYjQ92oX0Nc8GcCzejXRaoRhSxC9JNo6NDMzrC6mOW0oyb5izfu3q0SO/Ott54pJ19+ra7Pq/Dd5TgdEHJst02II0rAaUTIBI22c8Lca6pKThkXa6qifU/UzrGRZfz9D9fz9N/9vF5y7mM558gJCxyMMcYsSRY0GGN2i8Nf+R5dXx0OYRL6mymDEiUwyIKilGS8y+QEdVSKUJBspbeIuPHMidFkCTcKHjJe2+4MmXYrgkq7zWI8vlJdSZMDsTfDgUWfF516OL/14kftkQXWf1z5HDnlyk/rzc0E4ro4mcVrg1IQXSATCBrxmojid/4JjdmBuQaR5RS1gnilTD2SCn3X4Vu9Dr/ysev4zhnH6Rsec6CFDcYYY5YcCxqMMbvs4Aveo7dPHkHZXYbObqFTKMMM0XmcD3SckOs+WQDfNupLaqXri0teUN/Q/mrcsyEtWJA7IpIziNIUEzQ543JEZzbwkNUlr33maVz02EP36MLqa5c/W0649NO6cfowBr6iykNCTpAhSSBKwI49szN31gxy/FzwJTEJCSgc+NSnEKWsKvraZV1T8t6//zY33rJOf/u5912PEmOMMWYxsqDBGLNLjj7/d3Tz1NG4ahIZbGpDBgLRezxQ5BqSQ32Jju6Wi0ASNzc20ewp4xqG8ZjLcSXD+LeVrEqjjhACkmoCGe+gbhKpuwIdbsHNruOch6zhU7/0jEWzmPrm1c+Wky77pK6bPJShdAmhxtUD1Cdc0aVpEmE0R2NnC0qzNO3o9V/4XEoJob2QytmhFGSN7XYKEt5XNN1V/Ok31vGT26/T8884jqc/cNmieY8YY4wx9yULGowx99rBF35QZ6qDKTrT5KZP0IaEJ7mA4PB5iNNElvZOsqjDU4/+toUMe954msTC12JBQ0gnOISKjNDgvCNmpdGAryaIW25ntZ/lhWcexztf/OhFt4C6/qrz5OSrrtX14WAG5QTBK6VLNHWPypeMh57sbEFpzJ3xJCC35z0pgUDQmkIbvCa0mCZOHcCXbryDG6/9Gjc8/sF68aMPWXTvFWOMMWZ3s6DBGHOvHHrB7+mmqaOY6JQ0wxk0RnJREPGgEbKCZKJ4VNrxguNlrSh4Its2IzT3Nzfqx5BJrh0D6XTUf0ECGcVrpOMiMUYGUkI5hSSo+32OnZjl5897Ahefft9Plbi3/uOy58hjrv6M3pgOoS4mIW6hkoYca6J05/faG3MvZARotxaNAzvFUbsCckbqLUyGis7KA/jxsMfvfvE7/Ojm9fpb551oB54xxph9mgUNxph77LCfe6+uX3kCEwyJ9QCNQ1yoSFKSU6LyGQltyb0SEM14bScXqIwfQ7JL7cVlYd8MyXgXIEZiUrLvIGGCpmlYnmd46KHLeNtLXsDph5eL/lX8yqXPktOu/ozekg/AdaYZDGYILiIs+i/dLHJZwmjrUcRpjQOiBBqp8AE6WuNin5gSvpriDoTPfvs2/nfdl/WSp5/CEw7v2kFojDFmn2RBgzHmHttUHoC4gjy4HXHgy247oSBFClFyzuSs4MeVDAv3/rcNBrNaNcOeN7oDK20lQ5YMOv8YMrU6optqt74MhqxmE8896RDedf4T9qoF0nWXPkue9Ot/rd/d3OCmVxNTTZmHc79vWyXMvdNWaokCOJK0FUJFVkQcMXt80UFyohjO0vUVdbmSb2yJvOUTX+MlT36EvvpE69tgjDFm32NBgzHmHtn/NR9VN3UgneFtBO9I4ok4JEY8kaKo6DfgiwJJNY4ECEnGp5t2cZvEbdMbwOwJbfjTVjI4HfdnaB/nJqLqCL6AwQxHTiUuevLJvP7Jx+6VC6Mv/J+nC8BhV31Fc7VsLlwQke2aP1ozSLMzKg6hHZWaEbIEkoDXSKEDfC6ofaAnghNh2mUkDZjNwrDb5Ud1l3d+9mv85MaD9R3PfMhe+Z4yxhhj7owFDcaYe6TfXU0zaDggZGbUI7h2aeo9KUcGdU3KSlF4Rsu4HcYJFjIsJu1rkWW+R4OKA+eoyLDxBh59xHJed97pPOO4A/b6BdFPL3uMHH3VP2nyFSKCc267Xg0WMpidGVcx5AXnMlGHqEMlk6WdauKypxDHMLYNIouyIqdMCEKP5Xz033/KD9Zu0VefcxJPOizs9e8vY4wxBixoMMbcAwe/+oPa7xxJp1NR9/vkwlOgkDK5KGiyp6w8kznT1H0IFfVojKVo2/xRpd0y0S5m9+z3s9SNx1qKthUm7dI64oCEo19nOtrneacfz0decco+9Wr96LIz5PCr/1Wd23oLj6pag0hztyltFUPboyES1JHEUbsAJDo+44YNioeyZEDEZyhTQ8FGesV+DPY/ii/dsol1H/snbjn9SH3JY4+xA9AYY8xez4IGY8zdlmaGdCc8KdbEEsqcySjJB1QhuApSpgEIBeOe7FkY1T2AbZ3YfcaVB3n00xVtO963P+9MIKEp0aggRQfIuKbBOwVVmjBBUgUyZRoSJDGkw6ybYtjvcWQ1y5uedSKvedKD9smFzw2XPlZOe+vH9fvLTiSEwMr+zXRdzYbcJZXTdHKfKvZoXIeedHEkunmAiGcg5VxIMz+qdetmmlgfkn1cRmgb20L73kujPjQ+A3iaDLjRpVZMeARQkkCS1VRxSBnX0utWfCuv5K1fuplvbBjq/33Wcfvke84YY8zSYUGDMeZuKzoVWYXgPGVT0/eTtPfFM5LjXLUCC0IFp5ksO1hwjRoPmntv/PNeGNh44miih6OfoAwVLkVoeohI+1r4sg0nco1LA5xzxNBllgKaRHdwC6cd2OFNL3sOT3vA4p8qsSuue9vPyCmXf0pv6x7ClnKaWiMdjeTUJ+HphRU4Ml1tAGgI6KgSxGlEtxrRuiA4G4UM7bJy9NToJyl23BtAFdR7lETphEIKmqHjC9+6mZeuW6cvO+tUzjpyap9+/xljjNl3WdBgjLnb6hRJCE4Vl0ADW93Rndvbv9UdXkYTDLa2o+fMPZNl259jZuHPXsS3PfFV8YDzjqxCkxRIVE5xHuqcGCQhitAZ3s5zH3kQv3/RGUtmgfO1K8+VUy/9hN60/EHMhGmm6y1MaGIWqCUQtKHQBE5oXEFGqVxCE1tVLiwMFRba+vn2PWJhg8kpkryQsqBNTTc4fDnJ+lzyxfVDfvrX3+LHpxypF5564JJ5LxpjjNl3WNBgjLn7NOEc5OzJfoKQ63ZUpbSTCtry/XaxOz/NwNxX5kOGNtxRcTQLTuulS5AaokIOFdk5SA2F1jhgmNrxe52JZVTDWfZvbuOS5z+WN5911JJb2Hz16hfKI6/4pN46dTQD6ZDSLJWrCTkxVGGAo8BRuEjOGbLMVeqMf1g7yg7a59rXR5QFVT9mqas8be8G1wGNSIoIigslyXf43sY+7/v7/+TG9bfplc84fsm9J40xxuzdLGgwxtxt6//wEum87m9UQocoHkciq4yHI5IBJ3mbu7XuTsKHjAURu2a+R8N8DwwdNXUMmiHGtpohdIh4chMpNBJGUxaGRZfUZOotmzh+FfzS88/iuQ9fs2QXNF+/4jx5zJV/qTd2jiRW0/hmM11qVAJ9LVGETo64rETkHh6+82GDMQBNrhHNOCmBgugblIZKGyQGUii4w63mj79xK9+/7Sv6sVc8Zsm+N40xxux9LGgwxtwjUvcpyhKahrqoRhMlMp56rjEhWzV6vLPqBgsZdtUOezSMXg+AJB51Difg0pCQE74I1OoYNBmXh0zlHk966Bo+cckTbBEDfOXy58rj3vYpvYmD6WlFJlA6pesSMSlRHOKkPcZzDe096G0+y9aNT+dDNYeQrTWJAcAXAVGBlMg4YlaCD3iNeE148fSzZ1jux3U3beEJv/k3evE5J/Oih+/9I2aNMcbs+yxoMMbcI1M6S5M6iHOgfq6KwauSNeNGYUOmXfSOS/q37ydgdtX8eMr53hheM4KS8CRfABByDbnBh4paSgaxgcJzoG7g5U85mSue+VBbuCzwz289VwCO/I3rdbNMMpEHTOsQARopUBfacYZs1f5xwRaKBc/O9XCwCStma40KpRMkJ1QTqkKTPc6VRE04hIqGJmaoprjRLeNtn/0vvnPjQXrl0+w9a4wxZnGzoMEYc4/c+oGXysrXflJ7nRV04wxJ2rnxWcBnRqXA7aJKF2yjsJDhvrNw2kcefVRxuNxQSBsAJd+hdhXNcMBE3szRKyb55fPO4oUnWqO5O/PjXzlJDn/HV7XOjmEocdqANkhqp6lENxrhOjfecGTBca/bjLi0t4EZEzwpR5CM8x7JHsURM6grcDnSJdEthM11TT9MMCxW8RfX38gP1t2uf3L+6fbeNcYYs2hZ0GCMucf8cDP9zqFM5NvBBbKGtqmZCCUNOTeocyQJgNuqtH9cVt7ehd8jX/4+Q1IEH0gqBAc5RxIe50tyM6AiUjhhVjwDP0GMkeVxE+cev4qPXHKO/fTvhhvefKoce9nfau1WE0OF15qQGgLCEI9ziieTFWJ2BOfwTskpgvrRZ9lBRcOCaRVmaRJVFAGElDNCRtRRAJocOKHOfrSlQvE6JCL0wnKuW5c463f+QV/25Efy0oevsPeyMcaYRceCBmPMPXbbh14h3V/8Rx2GDpIylROccySNxJRBZDR7cfuF1HwLSGsGuauCA8ShIgzqmjKAFyU1PQKK4piNgnQmcINZ1jDLRU87iSufbWXX98R3rzpHTr3yc7o2ryCWHYoqkGd7BB8hR/CK4KlCRUqJepgpq0BKeuclDBYyLHnjXiptBVLbu0OI+NExk7IjuYIkjpAjPtd4Mo2rGEjFf/Yc7/ybb3DLrUfqLz/pSHtPG2OMWVQsaDDG3Cur1n+dtWtOYLoKyGAW6i2IV7IPiOsyGNR0SoBMHl0CO3UWMuxGgqcZDpDgqaoCTQ2ShlSSUCkZhAn6g8hUbxMnrVQuOudUXnH60bYguRe+evnT5KTLPqmbOg9kS5OYqLp0moYokHLb0E98gxdPkqJ9TtPob1t/BnPXRN3cqOD5LWcOlxWVBDiSeEAQzXS1pplYxrq+5/1f+i7fu+U2/f2XPNLe28YYYxYNCxqMMffKT//4TbLyoj9Q7exPChM4JxSuITeJRhIT08vJw1mEhFMhSRg1iIwAJOesb8MuiiJUnYCmTJ2GZHGIL3CuZMswk7RhIs1y9kNX8ReXnGmLkF10/VXnycPecq2mZYcxS8BJRr3De/BBicMa8SVFUdDkpp32sU1RgzB+bA0izdZEIYkDAu301EzIEUbNXaMLCI6gDWVu0MFmXFlRlwfwdz/cxFPf80/6yic8lOc+zKZSGGOM2fMsaDDG3Gt3fPDn5MgLflfXTT8I6S6n2XIby6uK2ZQZ9GYJIVPk0XJKtllYWSf+XaYi9OshlXc4cTQZku8yUCEUDdPDDZx/1sP4jfNOsIXHbvJfb3+OnHr5J3Xd5JEMO9PEpkceDOgGR1EIKdbgE14Usmy3c2L+sR37ZnsL+9mIjqvB2rdvO1Gm/XXjPKUqmod48Qw7K/j/bx9w1V//N/+zbrO+5cnH2HveGGPMHmVBgzFml/z4w78gB1z0Ad2sh9CpJhk2fQoPGcWpIyOAa6dRMJ5GwagZ3h790vd+ObYBTijIdaQqS5oMcWYzh+0nvOFFZ3HRo9bYgmM3++qV58lpV35W15UH0KkKmlCRFZJmsjSQUvu6iLNeDOZOzVe3jJ9oz5bjqq+MI48qweaqG6QhS6BxJSknOq6GQQ8tp2B6FT/uzfLR/7iZG2++Ra952ePsvW+MMWaPsaDBGLPL1n/wVXLsq9+jN8cDyMU0ITcUru3EnyTg2HrLBIDPecFYRnOv5ERVlMQkJCnxdU3Vu42nPHgNf/lLT7NFxn3ousufKWde9Wd6S79Lmj4QdSVx2KMQyBKQsiLVzVy4lkfHujCeNmEVPUvddjmrLuhgo+1DER0ls44sGacCMqpukECdIkXZxZPxzUaWdwrqvIwv/PgOnv6uL+kFT3kkz33wpJ0LjDHG3O8saDDG7Bbfff9r5cDXf0zX+4JOhiIPcA4acaCZAiUjKIHRvTrSTj+ruSsBgZypo6AuIDrgJU8+mXe96OG2sLgffPGyF8hT3nGtfmdQIxOTBISOC/TUMxwqQRyONIoT2mChbfKX234aVtFjtjIOGgLRgbiEy4mgoASilKOQIRJoSFmR0GU2R5zUTLhZZFhTpwkG3UP4Wr/hlk9/jfW3rNaLn3icnROMMcbcryxoMMbsNmvf9bMCUL7mM7ppYiXduIHJOEt0k/TdFEpDR4c4KWiYRqXf3pnTPNdxHXW40YJMR1MygX2ycWSSgCg44tyoOxU3aggHLjcUZHKChhLKCnIipB4d17DFd+lTUbrIQyc28donHsP5Z1vIcH/6uzc/RwAOvvor2ixfTW92IytdnzJHBrkkFl1cThTUJBR1JaUribN9pBxNGWDhpIG7Ni63V8GCin1Oew4QcjviMgG4UeVDxut8BUxUh7qMpIYCQD117qJ+EnGZIt+OD4F1eZp3/OvtfOv27+t7n/tAOzcYY4y531jQYIzZ7Y7v3sH/9GsGnWVtY7xhn+liBnWeQVLEKSH3UBIqjugCXiNeI07bO3o6ah65MGDIsm8FDiHXwDhcaE/H853m27qPgXpCgIKMpFmSQvIVs65DipnlzXpOP2oFn3nTC20RsQfdfOlj5LDL/kZZdhCbNNBNNZNO6A37pHKC7EuKXCMpMWhm8MuW0dTN3HGfWbC9YsExrtL2N2l7mri5cnsLGcy4Ombr50aP1SEJuk7IruBv/+N/eN76n+rLn3wSz3zgCjtXGGOMuc9Z0GCM2e2u/+2XC0Dnks9qv1pGt4KmvwHnAsF3iTHSCa5dNM/9LYdbcMeunVSxbwUL23LoqGKjbfe2sGlmxuGLilTX5BwpC4h1A1KC8/Tqmv3zZl7wqKN498sfawuHReCnVz1Vjrny77RXHUgqllMPNjPZ6TDrMsOY8eKpvKMW6Oc+gYLx3ntgroqH0WPlznuYbNdI0CxZKjA+dyw8LpxmQky4omS46gi+sG4T3/3k9fzotAfo6x9/hJ0zjDHG3KcsaDDG3GcG736mTFz85zrbWU5ncg1FPaCDIpIZaATp4oiEHFGBJOVch3XH9lMpnC6sahgvzvdejRQgbdVG2yzTodJuk1CBkBoKbSiCo9eP+O40mjLD22/miNXT/MI5j+aSMx9gC4ZF5AeXP0UecdlndMvk4dTd/ZjtbWCqaqicY7YRYjGB845OMztaFLaTBcZ3p4X5kGGrO9bbTK9QayZpRhYeJwtPmSE4hrOzFChRCjrLD2TdzB38wZe+ww9u26TvPs+2WRljjLnvWNBgjLlP9a55vpSv+TNtOocSG4ekWYJv96SrCE5Hd/ZVSNIutFEQjai0kcN4MQ77VoVDFodTRlUMkEdNAjOOttChxjtoouK6KxgMGti8jrOOW82rn3sGzzhmyhYKi9A3rnqWnHTpp/SWiSOppvdH+usoGVKHipncMBUqJnPJQBqiFGQCTuZDhnbcQPtLaQfFzvVk2PaxWbp2XNUyCqAk0zSRiWXTNCnhmwHTKZHLgs2s4k+/vZH1t/6T/uyZJ/PsB07becQYY8xuZ0GDMeY+V7/vBbLswo8oyw+n9lOkPKDUIY00o1nxbQNIr3Huynk8+nJHlQ2MfmdvV+SauSqGUSNMyASNeM3EnMmhQ/YFqR6yIm3i3DMewgcueLQtDBa5668+V064/JO6JRxJz0+RdUCQyLRLaKzppYJctg0gg8ZRg8fxCMzReEPmt0+IApLRucoGq2ZY6ub6dWzzeG4LVlGwpdejKCoKyYTcQ/BszIKb3I9/vmkdaz/3TX7yyCP1dY891M4pxhhjdisLGowx94vNHzpfVr3sXdqsOY5IiW9qSto7ukkCWaGgRhSSuK3u9reL8XGpeLvAGv/+3sy3cwhIFO2CUsBrJmjTbrwOFcl1GM5s5PDOkJ8/7xR+8axjbEGwl/jmlefJKZf9ma6dOpbZYj9C/zaWVw29WFOXy4AKLw1B04LRr8xXNjDfDFJGgdvcxIl9YOuQ2T12eBrUwHBQMzG5jGHT0IgioUCbyFTwxGZIXL6a/x00fODLP+J7N92q73nBiXZuMcYYs9uI6l5+pW6M2ausecXvaL3iQTTSpdJZoI0O5rZJMKpiWEDmqhzuz6/0fiBp9E21+/HbHhSZ5NqRh2TF11s48dBp3vi8M3jGgyb3tZ/AknDKFZ/Vm4uDKboT0NvARMczVEVTp20EKXk05nW+WiGPGvzBeMuENX80d1d73HjvSSmhqvgi0KSEpoauE3yGXuHbkFOFTrOZE1YJF571CJ5y9D3fknXuuz6vaztHkHxBJ26mJDKkJLoSr5EiD0niiVLiFAJDEn63f+fm/hM0MQwTRBGW1Zs49/gDuOTxh9u/UcaYOVbRYIy5X637w1+Uwy94t26YfhB9qahoCNqgAgM8iCOnTCHtGjzj2v3rOt8m0tE+Hpea762ir5DYUOREiZAUGhdopCA2PVYxwzMfcRAfvOhMu3jbi33timfK4666Vn86PIS6sx85bma5G1BnB52KXgLJSgfIOZMLR8oJTx6Vxbv5LRTk+aoGSx7MDrVBbUrt8SMC2iSCZNR5GqBxDq81PkfEVcRyGV9Z3+eWz/wX3z/lMH3tLm6lEBFLxowxZomzoMEYc7+74cOXyDGv/oCu7RxBow6kQHKiZEBSwRcdYoy4Ue8G2KZnA/tGdYMOGwqnlIWjP2hIvoO4QJ7dyJHTifPPPJFffepD94Hv1PzzZc8RgIOu/nelO8kggXNCqod0fLttJquA88QmUVUFMcZtpk3k+X35alMnlrr5Kpc7ORakPV5ER+FszqhA7QJJCqqcmQiZwWAjhEnC9H58f2YLH/nXH3LD2nX6m889+R6fe1S1/c9SBmOMWfIsaDDG7BE/eP+r5Oif/yPdUqzkjlwyUZZ06o1UDnrDDOUUjJoiJoE0GgHYjoFsH2+7xWJvs7z0DOuaLY2inSmyOLh9LacdOsHrz3s8zzlhjYUM+5hbLn2UHHH1v2pvYhWePlUc0sntJIk+AuLxHlLdIOK36tGwsJJBFoQOZmna6euvbi6QzcJc10ivGUeD15LZZoivKgoy9G5n0hfcmrp87D/X873bv6KXPO1RPOkQf7fPQyKCiKCq810qjTHGLEkWNBhj9pgfvfflAjB1yae/2lxFAAAgAElEQVS0FydQ36XUCE7Q3CyoDXdzXffbq+u9e8vEWH8whLJDFkddD5hsNvPsUw/jo696gl2i78N+culj5aDL/1Xdsg7qCnrDIRLABaFONaV4RMp2sTau4NmzX7JZ1PKdbKVxoy1mkASU0DabzRmfE8kHmhwYZGHCJaZCDRrp+Ul6xaH829oZbvv4l7nh8Q/W80896C7PSeN+X+OgQSxlMMaYJc+CBmPMHjfz7nOlvPiTOtPdn6oSOmmWMOyDK2lGlQvt6EuHSnva2turGQBiNU3GUW+5g8Mnal759Efwlmccb1foS8AtVz5Wjr30k8rUwTRTqxjWPco8Q+UyMQWc66I5tpULo0UigBtV9LSP9/73gLkvtceH6DiaHU/sARAaepTlBCl5YjMgFu30nzQcsKwzTb+ouCkGfv2vv8UP1vf07c94wE7PTdZg3BhjzJgFDcaYRaG+5jwpXvMpHaYJPDWTwVNrO8YShYJEJpNHC6x2NOTe3bU8pRpmN3HKgZO84Tln8MKT9reQYQn57tXnySMv/XNdnx2+M0keKj4ISZQoOmqCquxomKU1gzQLbXcsyCiEGvX4cApOM1mULJ5GCpAtSNOj4yqSL9nc1BRVl04AehtZUVbckR311MH86fW3cMsta/XDFz52h+eoue0SzPdpsKIGY4xZ2ixoMMYsGs37zpWDXvkBTVNraKjIKE4zjkxGUHE4xnd09/6r2FXNBh7/sDX88evO3vu/GXOvfP3q58uj3vpx3aCHkspp6pwgDwhSkxGyFIhm/NwWijZoEyL7yhYic3+StseHKKXroqmhHs7gqy5lWVI3DWik2ymoU0PHlwy0phcq/uXWhqe/55/13JOO4MLH2BhDY4wxd82CBmPMonLL779K9n/lR3Q4eSjOZwodgApptGXC04AK0bX7jfdmrzz7VC579rF2wb7E/fvbfkZOuOyzeptbhXjHlEto00d9lygFXhqCDsl4ogQc7Qz7tKe/cLN46dYhVBZHXtBYtMpDcl0SqoLoM0kbQkoEgegdMy4glBSxz3If6YWCTX4/rtvYY+2Xv88NG7fo1U87bqtzl4jMfXSjSjRjjDFLl9h+OmPMYnT4K96pt684joaCaXr4NEsTugxdF5ohk3lACgVJHBk36uOQyTjSaBSm14zTdk9yEgfSPgbIbP34rmTGozXbR6IZRGmkwuuAkCPOBVJuS9xTEKJ6vAhF0ycI9LRDqlYivY08vHMrl/7s43nGyUdZyGDmnHb5tfqTzhEkV7KMPiEO0VAy9IEUB0yGTFBhNjma0KWKg1H/Bse4Yeq4aer8YT1ecG4dys2PRjTmro0bPOacUdW5j6cfNsErnvcIvvvfG/jsV77Nls5BJOeY1D4ahzSuQ5SCoEOCNiTxROkAmVKHpL1869tSFzQxDBNEEZbVmzj3+AO45PFW6WKMmWdBgzFm0Tr0Fe/W4apj6UVHcA0+9VEVQmeK3jDinbbz4TWjc4EDiEYcbBVCLJSFHQQMO16QjcmoekLFkUeLO58aHIqIUEdFfUnhPDn1KTwkhOwrmuzRpmay2cgZx6ziL37pKXYxZnboUVdcq7dWh5LKSaSeYcpHmpyIrqRR0KamW5aQM7UUOMZhWds0cts72W0vh7s+to25K9v2Xxh/LIebeOBBy9lvapLbBsqGWJHFUeU+XhuyK0cVOJmgzWgr0HxTU7WtP3s1CxqMMTtjQYMxZlE7+qJr9JbOYeSiix/cwcqOZ8sgEavleBq8tpUMSRxJAqKZYtSZfxw0tJULGVkwV35+0eW2+Tju1N6232v//Hz39nGgoQJVrIlZcGUXX5bE4ZAUawIJJ5lahVhMUcfEGtnMy087il970Sl2IWbu0ulv/yv9YV5NOTVF1czgYp/ku6RykqZpKGKfSQ9b6IyChlHfkrnqhq2bA+6wcaTk7UIJY+6Kqs5tjwCQcoK05VYecvgasvPcMUj4okSHfToOoua5ahurqNn3WNBgjNkZCxqMMYvesT//+3qzX0OuJnCxR6kRJ0pDuc2fHPfmHy+28lywsKPKhq1tf9e3DRZGz47uFjvGIURGU8J3l7F5dpbKwWSAGCMUHWr1OOfI/U0cuczxuvNO58JTD7CLMHO3nPVbf6f/058kd6cpyEjsoziKoiI4Txz00VFZjs4FYm6u8manLGgwOzHeLrEwXBg/DzDwXYpmMw84cCUaB/QaRcpJVBWvEckJcBYo7KMsaDDG7Iw1gzTGLHrffe8r5UGvfr/ekA8lT6zEpU1M1htR54nOk8Qhox4NKETXhg2e+WoHlVEMMbcQa7v3z9t+gbYwpJi/Ws6jwEKpfUlOkW4ZqCShcUhCaNTRqBA238aTH7w/n3mjTZUw98zn39Rurznkbf+u9cQKSuco0wCvDb3ekHIUumVhLmQYBwcymsxiizyzq5xzbHtDalzZEHLE5UiQBh88MWWGqcGHQF1HStlRDwbbxmOMMUuFBQ3GmL3C997/ajnu9f+ffm9Lwk1MMuMm8SKj0X/jho9tR36v86P/FjaGzNJ2Xx/vad+5cRPIrbdTJAlkoHCOpp6hWziamEl+Ai1KBps3ssoPecnZD+O3n/9wCxnMvXbTWx8lh13+RdXp/YlStKMHS0FTn8a1W4Vk7ngebfcZV/SQRyXqVrlg7r2FPRrGVJUgkFKD4kZjMR1elNgMqUJBzswfm1ZBY4wxS44FDcaYvca33/UyAei+5lodTKym0lnK3IzGXDqiBFQyQSNOM0kCSRxe24aR7U7hNiTwGlHZ2YXvwm0U42aQbXihCD4N0RyJMZCKCRrXYbDxVk5cU3LhWSdx8eOPtpDB7LKfXnmmPOhX/0qbFYcwJFBKpKBmSIGTcZXO6PiE+eN6NIFiu7IGsbvJZud2trU254wrJsBPMNQZxHuCeLQZgkuICmwXci3c3mbHoTHG7MusR4MxZq9UXvwpDd1JPGkUNOQFYyjnL2B3PGFi578HW0+aaD/r+PPHNrjImRwKkitphjX0bueJD1nD537JtkqY3e9h/+fPdbDfUfRVcB7K2GzdbG8cIKhbEKLl7RtBgt1hNrtERFACOfY4+pCD0VxTDxpUoCwDdV1v19th62POgoa9nfVoMMbsjFU0GGP2SvU158qaCz+izcRKYjGN5oYyDwBopENUpfAZlxoQh0qBquJyA05QKXCa7vL/IymUwTNsIuIDIEjOVF7IcUjPd1FXkWNiWXMHLznzgfzOix9tF1rmPvFfv/58ecSb/1TTfg9mi5ukKxtQUTIJxKMqaMoEDzElcOM7ynn7Lv8WMphd0PZpiHhNOGog4YioCzRNe+wpO5h2YowxZsmwoMEYs9da96Hz5cjz36nrpx4A3WU0w5oiDymDbzvxq+JGTfLGjR1VAFUU5a4SgYzDFwX9wYBO6XFEmtReNffqRAhdnC9pZjdy5DLHxeeezuvPONJCBnOf+sY7XiSPvPwzOuwextB1IPWoXEYlE9UjPpBSxLvcBg+jigcdVTzsaPylMfeKtMeUQ1Gda8gw35yUvPVo1a3CLatmMMaYfZ0FDcaYvdqPP/IGOezCa/Q2gTqUOJSiqZkoCoYaiAhelJAbkkB2vh2/lhtwO+qKPr+HeFgnQlGRYx9xue374EpCd5qZQcOy/noec9R+vPGFZ3D2URMWMpj7xdevfJY84S2f0O8vfwhVKHA0pBRx3qPi0OSQrIgomUiW9p96UYeMytdV7sEoTGN2IBFGQ4MFpP04fxK0Y8sYY5Y6CxqMMXu9n37oYjn8Ve/TO8LhxGoaqQdIPUQKh4pHNSIiiCrQLrbaPcbjUGF7jkwnBHJqA4lezviiIoyqGFYExwtPPoT3XPRECxjM/e5Lb3+hnPqbX9BNA6HpLCN6T2pqyhApioLYZLyO7itL27/EScYpqNz5cW/M3aXiyHiUgDKqlhFgPAllQQWNMcaYpceCBmPMPuGGD7xGjnj1Nbq+OJzadZioKiT3CTRk54gK4hxOR/fdnIcdNsMdl5ZniIN2XJsv0WqKocJg4zqOW6G8+KxH8aazHmAhg9ljvvrLT5Kzf+2T+p1hlzi5nEIGFAyZnd1Ed2IZKTWjEZcZh0PUGvCZ3aed5KOjY6z92F5WKiptXxC5izDXGGPMvs2CBmPMPuMn779Yjn7NH+paVtOELoW0J7mEEMVDTu1wS4UkAbfd3L92EgWA14xzSnuprDT9HkXd4/EPXM3rnnEyT3/ISgsZzB739796ngAcdNV16jpd6hiZqDrE1LSTJ3S8R348/tLNj700Zhd4zaAZrwl0vldDEsGp236sqjHGmCXFggZjzD7lR+97hRx78fv1huEK6u40KoKTjGjbBT0jo20UCUHmmkQuNB55WedMUXWIM1uYrjfxgtOO4QMX2lYJs/jcctlpctSlf6/FioOIaUAQiCnPhw1EAPJoVKv1ZzC7SmW0U4JR01Ftp5w4bc+0xhhjljYLGowx+5zvXvNqecAvfEx/HBPJl0zkSEFDEk/G40RxktHc9mxYaBwyqDhy8Ny+pcchy6e45KmP41eeeJCFDGbR+t+rz5YVl35Z91uxHB1uwTtPTQCBsM3dZcH2z5tdkyQg4tuPtCGWsGDKhE05McaYJc2CBmPMPumHv/uzArDywo/oxs4afHcZvhlSkok5kxFCgJgVJwWaUzsO03UYZIfTyGTvp1xw6iH83oVnW8Bg9gobr368HP7Wv9XBiiPoxD7TOos6zxYpiRk6kvDSEGMk+Um8RkLOZKFt6jc60scVEMDcWMLxm2A+oLC71kvZfI+GCJJoj4eMirTBgrq7HCFsjDFm32ZBgzFmn3bHh84XgEMu+pDWxTRUk9Qp4TzERgi+JMWaQjJdlxlsWsuBlfDIBx/Gx193vl0nm73ODW87R054y5/rYOUD2aTLCbFPRY/CV2TfIedEKULOQzKe6NpLAacZn/Pc9optb0LPP7aAwRhjjDF3zYIGY8yScNMHLxSA49/wYd1cD+lUJX2doGRATkOCNjz4sNWc/uTT+JWnPcQCBrNX++bbny/Hv/Va3TJ1NFJM0AE0ZfrDtkmkwyE0IO2++oWcQrJ3gDHGGGN2gQUNxpgl5VvvvGBuCfXR629VlxpefMrBtqwy+5xvve05cuoVn9abi4OY6S5H6k1M+IaUBYoJhingyDhtt0kobq66wZpFGmOMMWZXWNBgjFmyXnrSagsYzD7tq1c8Wx7z/9q78yBLr/Mw78855/vuvd09GwaDGYDYCYIgIYrgDpKgAFKkSIo0RS1UIsllJZWlojguVRLZsUSTWLhAUqJUlEoqVf47VXFsaqVIbU4kWzRlSrKkcpRKZLkSkZRNRiIAApjp5d7vO+fNH7d7MAABECDusGe6n1/VFHowjZ5vtkLfZ85534//Zvz5YoPSrQOPM+0yZ4cdxjKli3Z+UOSYoZGBRk7LgZHL+QzLfwcs12JGXm4ccMCfJEl6BoYGSZIOsN/9e+9Mdz34G/HldCWbzChtwbSDrm6fP8WQYnmKoWNxfthjpL1hfhecbgi3CEiSpK/P0CBJ0gH32Q++KwFc/+AfRMyOMd95lI1oDLlnpGO56HWkRCOAmr529eWFpxhcjylJkp6NoUGSpEPiLz74+nTtfb8dk+On2FnMSTS6WEAKGomaut21hI2nrp148ikGI4MkSXpmhgZJkg6Rf/vA29I19/1WpCtuomx/lY00QhupZULNPbSgI0hRn/HUgjcnJEnSszE0SJJ0yHz5gW9PV977O3Hi2FEqU+qYaDFSIhENSt9Tx2fOCZGymykkSdIzMjRIknQIPfyRu9MdD3wqHs4nKevHyG2bMm6TKIwDkArQlpsm4PwgSHD9pSRJenaGBkmSDql/ed9fS6+//1fiq23GmKfUAtMcMAYje5snGimefF3CYZCSJOnZGBokSTrE/uD+96U3fvjn4str1zNunGS+9SjrpUFrNDpKdOQYaanRUrc7FNITDZIk6ZkZGiRJOuQ+99EPpDd+9FfjL87CZH2dOmySaGQakaDtnl7Y2zzhaQZJkvRsDA2SJInPffg96W0f+/n40tZpxtkxWp2TYwQyLWVSQGIkyA6DlCRJz8rQIEmSAPjtD31feu0Dn46/XGzQlZ4+tghgTB0kmETQqFQ6itcnJEnSMzA0SJKk8/7wvvemtz7wifiT4Xrq8RdxfPth1rYfZrF2jK+WNdZz4sj2w+x0awSFSMsrFSUaLUFLHQ3ILLdTJC4YJLm7wSKAFF6/kCTpoDI0SJKkJ/kn931/evd/+5vxx185y+NXXkuUnrXUOMnI1vaC+eQELRo5xt2NFJkxLz+lyLE724FM7FaGvdgQLK9gLL9dkiQdVIYGSZL0NX79x96ZAE5/7LMRR08TO2c5Ng7MSmGeeiIGMpkcjZo4f4oBIAfU9HQf1VMMkiQdBoYGSZL0jP7qQ3elW+//9eDIVezQ0+dEGjYpOe+eZFgOhuxiBHavTqQMtAu2VCztDZBcbq1wxoMkSQeVoUGSJD2rf33/u9PrH/jFeOTIDexEYa0biTowpp5KTweUGHdXYTZq6igBafeKxN4ch/NXKNITqzIlSdLBY2iQJElf1x/c9z3pDQ/8Qjw0vZrN/ijTdo5Eo4sByAx5sjv8sdG3xXJGA89+skGSJB1MhgZJkvSc/P5935ve+JFfjn/THWOe15nENl0bGHOhpglQ6GOgxLic25Ay7M5xABwAKUnSIWFokCRJz9nn7n1/eu0DvxIPzW6gMiHygkTQxQKio9ERezMaGCHy18xk8OqEJEkHm6FBkiQ9L3943/vSa+77tXikP8pw5AombaBsPcqkm7IZE4ZuwiQGumi0FAxAikQflZag0lEcBilJ0oFlaJAkSc/bHz3wnenbPvKL8WePBm3jBCc2rqBuPcakgwvnMrTdCxMpxe7bT7v3UpIkHSCGBkmS9A35zL3fk+564JfjS3XGI23CtFtnxg7TYSDKhDEykaBEg9QICgBdNOc1SJJ0gBkaJEnSN+yz970/3fOxX44/784wTo8xHxJ9ntOCC2Y1PHnNZY5GTXm/H12SJF0khgZJkvSC/NMPvT8B3PTgZ2I+uZIxrdHXHVKMuycZMsQTlyaMDJIkHWyGBkmStBKf/+C3pZd97LdjuzsGJEgXDnzM5082kBM0L09IknRQGRokSdLK/OmH3pbufuDn4qH+DFtlg8xIpgGNljpSSiRGwqGQkiQdWIYGSZK0Ur9z3wfSaz726/F4d4wSia5tQi6MqSMRTFtl8FMQSZIOLP8vL0mSVu6PPvTu9JZ7fy4+P7uJrdkp1uYPcUU8zGadsjm5irXxEYi0nNeQeiKCnCo5Ba0tTz8ApNgbJpl3h0su/52k/ZMDoAGF8HCSpKdhaJAkSRfFP/vIB9JrP/SJeKhdy7B2jMfrnOkEZvOHGPp1IiolBTkWtGjUlmilI+VCbgMAQaZ9TWBYbrOQJEmXJkODJEm6aP7wY9+f3nTfL8QXyg3UyTHa8DgnyoJH2gxI1NRICboMQ0tEBCkt/4o0B9QEe2Eh7caFwK0VkiRdygwNkiTpovrnD3xvuvMjn44vkaj9jMcWC2Zph0iZGokxZchTSmpEG0nRaGTGnJdXJ+IpgSGNEMYGSZIuVYYGSZJ00f3eve9N9zz4yfji4jSL2VVMFo+QUyKAsSUWKehT0KUgohGp270Bzu5JhguuUHhtQrpkJDfVSnoahgZJkvRN8U8/+F3pbQ9+Or6wmPJYzOhjZFpgQqW2RuTEmCYQlRxtdy1mvuCqRCNFZvnpi7FB2m/OgZT0TAwNkiTpm+a3P/jeBHDDz/xJjEMjB0xzkBkZSbQ8oTXogUylwfltEzka7G6gkCRJly5DgyRJ+qb74t/+1vTqB//3eGRYYz5ZJwXkGOmYM5IZU0dmb9vE3vHsTKRGpHH3ZIMkSboUGRokSdK++OMPvj297v5fiof6G1iUddZypR8eJ0diXtZZUCh1ZC0FdYQ8mTEyp7Kgi9l+P7506AU8aVOMJO0xNEiSpH3zL+7/7vS6+z4ZX167nnMUNlJH33bohi0oU7oSlLw8vTC0kcW4YGN9xrDY5weXDrmIgARhY5D0NAwNkiRpX/2LB74rveb+X4qvrN/AuTbleN8zqdv0bZuxJbZI5JwpXUdXM2nRAeN+P7Z0aKWUzp9iSCkto4MkXcDQIEmS9t0f3f/d6TX3/lz81fQGttI609zo20CXCqlkhjqQWTDtesZFWk6LlHRJMDRIeipDgyRJuiT80Uc+kN70kV+Oz++c4fHZOhMK/Xxk1mW6XBgWc3I/ITpf1Ej7qaUnrk6klGjNdbOSnszQIEmSLhn//N73p7se/GT8+eIK8vpJMj11WNClROSeSrBIC3pXXEr7KvITVyYMDZKeytAgSZIuKZ/94Hel9/zUz8e/fnybxfppap+I1igBrQWlm8DojAZpv0QEEUHbHQRZw9Ag6ckMDZIk6ZLzqz/+fQngRT/12WizI6RFMBlHYuwIHHMvXQr2goMzGiQ9laFBkiRdsr7043el63/q92M+PQVtiyNpm659lc1unWl05BpEroy5ES1TalnOc2CkpQZkcsuQGpEaRCZFXr4t6fx6yvQsrSBS3n2fRmL5Z2cSQWakS8HGxsbFfkxJlxlDgyRJuqT9xY+/Id38wG8HR0/x1Z3Men+E4zFwbj4S0w0idaS6wzRDS5XtqJA7MpCDZWQAguxZCOkCkZ49MOzJu1cjAmipI7cd6KaMQ6Oww5kTRy/ug0q67BgaJEnSJe/P73tbetkDvxFt4wzbdJTtR1jfOMIWMNago6PVSu4zqQ60lCEy0Ha/5N0vgKcZdOjt/dl4PpZ/jvbmMiwqkHrafIebzhxb7eNJuuwZGiRJ0mXhT+97V7r9g5+IzWM3Md84w9bWQ0zywEa/xpinjK2j1JEJidoqLS3X8KV44tg3LP9WVtIzn2ZIPPHnJNLuaaDdcNe1kZYLtVZmXeZ433jdlR4WkvRkhgZJknTZ+L8e/P70hg99Iv5s/aWcWt+gmz9OGuZ00545iYgOaqWkIFKjpkxm+YIq0QgykfL56CAdTru//3fnlizlJ65SBKS0PA0UuyeBIi2vIuWAWjr6nCmLs9x+w1X78QOQdIkzNEiSpMvK73/s+9MrP/bp2N45xjA9AbXRDVtMEwx0jGUG0ShtAXkvLixPNqTIuy+cDA0SkS+IDXtXjLjgelHenc+wdxooM+aORqNEhe1Hee3L79yHB5d0qTM0SJKky87/8aH3pjd/+H+NL7BOWr+CurXN8WllXGxTJxNaTUBHihFYTs0PgNQ84y091fmNLLA8xXDBN52PDVDT7hcS3bDJzaeO8L5bpv6RkvQ1DA2SJOmy9Lsf/YH05o/9Wnxxq8HaMR7ZeoRj6z3b87OkMmVMmRLd8kVS7E7Yp5GiEpT9fnzp0pLa1wwwiZSJ8+tgG6RGF40xr9GNZ7nztpv35VElXfoMDZIk6bL1ux/6zvTOn/zl+L+3TlHXT7FVzzHNIzCwQ0+kQk6Z1hqJBAkiBjA0SAC714lYhobdKxOZQpCpJCiJlDIsGiWglERrmdOz4K0vu3pfn13SpcvQIEmSLmu/+RPvT+/6md+IfzVMOdsK3fQ4edhmLcNQF5CX989bDXJX6MqMse73U0v750lbJc7/c287C6ScGIaRMpsAjbaY03cdOc1Y1ES/+RDvvvtWvvWEN5EkPb0U4ZInSZJ0MNz0k78b8+44s3HOkVSpMTB0hUaQKvR5ynwMUh73+1Evay0X8rDNi6+9Clple74g5Y5GcqPHZeDC0HCh2M0GURtd15FyMCy2Wes7xgGGboPNIXHX0Yf4n374TUYGSc/IEw2SJOnA+PxPvDnd9Pc+Fd3Ra9iOQiVDwKQEtJFxXNBN1qmjoUGHV5B3173uxYXlytcc0FIm+p5FWzCrlUkqzMfCkArj9llOrE34d994yz7/CCRd6gwNkiTpQPn8x/9aes2HPhEPr18HG6eIxTZ12GGSYWAk52G/H1HaV8vQMFICxtTRyHSMZIJGZmzQ545xMSdPZuywQdd1bGw/xPfecSv3vPS0pxkkPSuvTkiSpAPpNR/9xfgrrmI6O0EstsilkrvEfFjQpdl+P95lzasTl7tlaABoqYPIZBZkgkpPTR2TDtqww5An7ETPZOdR3vPiGfe/7xVGBklfl6FBkiQdWHfd+w/iofXrGPpjtDqnI4haIXmo84UwNFzenpjRsByUuvf1SLvDIIGxBnQ9qXR0mw/xmtOFn/3BNxgZJD0nhgZJknSgfctHPxUPr13DNPd0O3MmubDAGQ0vhKHh8laoLNIUgC4WlAjGVBhzT9cG+raAyTqPjz2TNueVR7f4+3/j9UYGSc+ZoUGSJB14b7z/k/Hnay9hMk0cW3yZkY6xrdPShD4tKGwSCbbqlFLWyHUgMRIJKh0ZSLH8m18iE+lwv5g2NOyvvQGOxHKoY6IBdffbEi0KkQoRQYpKV4LSIGg0EkOeMWEk1ZFKIlJPyVDagtqCeb/BkCdMdh7iTVdW/rsf8CSDpOfH0CBJkg6Fez7+6fh/xw04fhWT+VnW+p5hvmBIyxfOqVUmJdOGRi09DSjRKNFoafcuO5CjPe1qwMPE0LC/yu7PcUvLwY6Rlm9DJkeDFuT0xO/S5ftkoiVyAUom5ltMS4Zc2B6hRqLrOiIlFos5pyYjrzyZ+W++71VGBknPm6FBkiQdGu/46V+Nfzme4eikUBdn6TvoJhvsDJncgi7mBJWaexodJcYLQkMGWP7tceR9/pHsL0PD/npSaNiNDS1lcixnLJQYCRopJSJlKoUaiZQSXYbESNtd8Zq6CTX11JSXJyDGHU7GOd5681H+7rsd/CjpG2NokCRJh87N9/9OtCPHGEoiDws2WiNTqKVnJEhthxJBozCmjkwjx/KFWXC4IwMYGvZb7L78X8aF5dWJJw4wZILdEY9lN461IEejEASNeaQAqYgAABuMSURBVB3pZusMrWNRgy4XGDdZr5tcPVnw3W+4jR989TVGBknfMEODJEk6lG66/7fi3JHTrKVgtvlVpl3HZpoylo5JmzNpA0MuDHkCNPo2kIFK2e9H33eGhv1V8zJ4pcjnI1iJWF6hINFSR02ZlAppHMks6PKyG7TWmPdrBIU6BrlV1tnhyrLFm26+gr/zztsNDJJeMEODJEk6tL7l/k/H1uw05I5JasQ4QMnU3dfKyyF7nmJ4KkPD/tr7fQm7pxsiPzEgkkZELA8ztIDaljMZcmEMCDrGyJRhh/XY4rqNxKtvOs2Pvf1mA4OklTE0SJKkQ+319/1SfGnteoZUOFlG2DnL2K0x5AkpGtM2J1JmTD2NTAlXYxoa9leJRtq9IFFTYczd7gkHyIyUNlIS0Bo1ZcZuyrwlojZmkwk8/jDXHYU33nyC//IdLzMwSFo5Q4MkSTr07rjvk/HYiZtZDJUjLEh1YEw9Y+5I0egumM8QdCQOd2wwNOyvvd+DiXZ+owRAjpFM0FqDXKgUxlJIuSO2zzIdznHVLPPWl13Hj77tJgODpIvG0CBJkgS88oP/KB468VJa7jlazzGjci56ajejtAXTYZs0mbDZEv0h//zJ0HBxpZRobbk1Yk9ELLdIRLDopkxLZlwMTHKhJKjDNqRKpAJ5jZ2A3E9o4zZx9iu8+Eji21/+In7k7pcYGCRddIYGSZKkXa+89xfjkaM3UUqhX2yRCSJPgUZqA5GDmjvS4T7QYGi4yFprdF0HwDAMpJTIOZPSckXl3s9zAqLtfr1A7jt25gOl9KRo1HMPc80GvONVL+Zv3ekWCUnfPIYGSZKkC9x5/8/FX8yuJU2OsD5sMR3mRDdlu/SMdcGkjESd7Pdj7itDw8VXSqG1RmuNnJdXI1pb/tyuBYx1IBVo/RrbkZfXfFLQ1wWT+Vmunozcffv1/K1vu9HAIOmbztAgSZL0FG/56V+JL3AlfZ6x3ipbi4FxMmUyyaSdTVoyNBgaLp6cM60tt0fsnWS4MDr0UYiojCkYcqamTIlGP5zj2vXMXbe9iB+96zoDg6R9Y2iQJEl6Bjd87DMxzq6kSwNraWSxvc2k32Bsw34/2r4yNFxcEbFcUVkKALVWYHnKIaXEVswoJRFU0rjFbHicm4513HnTaf7mPbcYGCTtO0ODJEnSszjz4O9FmU6ZLc4yST1jTIhDPqTB0HBx7Q1+3Bv+uHeyAZYzG+raBix26Idz3Hxixp0vOcWPvvkGA4OkS4ahQZIk6eu45YF/HGycpg5zJiWo7XC/pjM0XHw55/MnGbquo7XGOI6klJjMv8JLrtzgdTddyY/c/dLD/ZtR0iXJ0CBJkvQcnHzgj2L92Iy1+ZdpHN3vx9lXhoaLa+/axDiO52c0bG9vk3PmzJkzvPemjh+582oDg6RLlqFBkiTpObr9b//P8f9dfzdH519hPSr9GCxyz3bOpDxS6jal9CxaT6RM3xaUqIy5MKYJKaCLBUHe7x/KC3JQQkMCnutnwpEgxRNvs/trmKJBaqSI3Y+YqSQiFYJKjkaXILXlFQhKZp5n5Bjoc6HVTA3IaU6u20z6nnnLDPkIczLjuGBaz/EtJyrve+kVfP8bbjUwSLrkGRokSZKehzt+4h/F41e+hHFsTICekdZGauloZUbURhcLcsCYOxqZEiOFSiMRdMDl82L86RyU0PCNShf8+gX5a8NDVCZdoZEYaxCRlu8TmUpQukoaRvoEkTIDHamf0sgMw0CXE3nYZDJscvPJNd5yx838h3dcaWCQdNkwNEiSJD1PL/3gz0dccR2beUo3bHGiVGrtONtmpH5CXzcpMTCmKYvc08fAtM5pKTOkKYnLe5jkYQ8NJQAaLe2Fhkwjk2mkaHRpuZoyGgwBpJ7ULTdIpKh0eaAjljMXcscOhUXtKN2Mjsp0eIybjzXedtvV/PAbHPIo6fJjaJAkSfoG3PXAP4zPT66F2Um67bNsMDLWRp2uUyMo0Ui08y9EgQPzIvyghYbnc4Viae8UA0AjxfJjsPvrTU4MbfkRJ6UjRaPVgczy+kSNTD+ZsYhKlA6AspizVje5dj3ztlfdzL//mtMGBkmXLUODJEnSN+ie//rT8a+Gq4j+KMfTDtP6OEMLtrt1Gh3TvRkNqWeRe0oEXcwJyn4/+gty2EPDXjjak2MkB7QELWVGCikVSoISI6mOEMuNEal0jN0VLOqCRiXVOet1m5efnvHGm67g33v99QYGSZc9Q4MkSdILdN1HPhfjZJ2j3UAez1FTR2MKLF+EwhNH7C/HF+JPddBCw7O5cAjkUwvAkz+LzuffN6LSlQS1MbS63ByRO0aWcxtSntG2v8qJbsGNJye84SUv4j9+3RkDg6QDw9AgSZK0Ajc++Hux3W2wlivTcYsUMKQpLUFhQdcqwe72CWc0XDYuDA17yu6PsaXltwfd+RkNOUZyG+lTZggYU0/0U4baGMeRvmSuiMe49aoN7rz5JH/jtdcaGCQdOIYGSZKkFbnho5+NxfQ40xiYtjkANe3+TTcNIrPcTnB5vxg/TKHhyZZXJmqGvDuDg3jipEqi7r5foqWOsWVIGVIQO49zsm/ccNUx7rn1OH/9VQYGSQeXoUGSJGmFbvzgr0RccT19yUzHHYZhDtN1dloit8p6hkW7vD//OvChISdaa+QLLkuklMhdzziOLHKmRGOSE3VopJToStDGOTV3LPKM1K3RFnPKYpMTeZuXnZ7x1tuv53u+5ZSBQdKBZ2iQJElasZf9+D+M4YobWURmYzphsTMn50wuMI4DiW6/H/EFOeihoRFAo8s9JWdaawzjuBzkGI1SEqmOpICumzDU5VmGbtKxMyzIOTNsn2OjbXPHtSf49lfcyPe9/LiBQdKhYWiQJEm6CF719/6XeOjYbYxpylEWrLUd5nVgnB2BoX79D3AJO+ihIZVlXKAFpZTl2wC5UEqhbyPjONB1HdtjYygzIk1pw4K1tsls8TCvv/UMP/m+VxgXJB1KhgZJkqSL5DUf+ZV4aO162jBytFQiKju5o1zmr8UPemggJyICWpDSE60gIogI+jJjMc4pfcfQKv1kRtvZod95nFdfc4Sf/cE7DAySDjVDgyRJ0kV05/2/EF9Zu45FWadnpIzbBGW/H+sFOeihIWIZGFJK1N0fTyZR8nIY5LwcodaBRKVvW2yMm3zr1cf5jlfdwrtfsm5kkHToGRokSZIusjc/+Kn4fDpDLhOOsMPQLu/Xogc9NOydYljOalh+vaRMqiOtNbYoTHNlnR1uO32Ut99xC99zy+zy/kWVpBUyNEiSJH0TvP3BX4x/y5XMu2Pkttjvx3lBDnZoWJ5aiAjIibzcTkm0kTaMdKVwOj/GjVeu8x2vfTnvevERA4MkPYWhQZIk6Zvk7p/6jfjTdD1H49x+P8oLctBDw/m5DDnR2kgdRojKiSNHOXXqFD/0so733OoWCUl6JoYGSZKkb7JTD/5ZHO/OslYfJ0ZgciXbERA75LwAMo0pRCEzUGK5pWJMhTFnura/L+YjZdK4w83XnoFxYD5WSIlGkFLARb0akqkpk2mkaCSe+LkIMkFHS5lSCnUxp6SBfnfeAiRaJM6VGX3MmcZIJjMfIRfoCwzDQO1nzNMGtSXy/HFumG7z2qt7PvxdrzIuSNJzYGiQJEnaBy/+8K/HcMU1NDLTYZO1COgmbI+JlqCLBTmgpo6alsf5S4wk6r4Pk4wEaVw8bWjI7G5seC5Sg8jP/u3wlPfJJAYgLcNCyrQEOdgND9BaO7+WMuVMJKg1SBQg02KHaZcpAaTMQM92CxrBWt/RdjbJ83OcWS986w0neeA9txkYJOl5MDRIkiTtk9Mf/Vy0o1cwG7/KxrhNG6fUcpSWGh3bZIJKYUw9pKBrI4VKvSRCww4vvvYa4vmGhtRIkYFG7L18f6bY8LShAQqVdmFo4MknHLqUiQgGGlE6WhQamb4UaMGkPQ6pZ2iJITItZygTUqukza9ypl/w5ltO8ePf+XIDgyR9AwwNkiRJ++iWe38t2vEriVRgPtDRARDpiRfiOdr56FBTpuzzHIQnQsMZYqzfYGgAdv+L5/x9xt7bT/z3Kbjg+kRe7onIiZQKleWayohKIUFU6jBSJmvUlBki0U8mpHHB8MiXuGYt8eZbX8TffdetBgZJegEMDZIkSfvsVfd+Mr4yO023vk5ZnKOvQU09Y+rINPo2J9NY5J5FmjBp474+75NCQx0ZFo2WC426DA3UZ78SAZw/zMCTI8Kzfp+77zPmjkSjtOUJhkxAJGpannAYo5FzJudMahWiUs7PaYBzcZSSGyV2aFuPcUWZc/dLr+En3ukVCUlaBUODJEnSJeB19/9S/OXsapjM6Icd+hYEiTF3NKAwLtcsJr7ui/iL7VlDQ4rliYYX8Ix7JzmeMT6kCqTz38feCYfl+7fdZ2jsDX9MpSNyotZKl6Cldfrthzgz2eT1L3kRf+cdBgZJWiVDgyRJ0iXizo9/Or5YzpDLlI1xky4GFrlnp0wBmNaBSVv+u/1UM5ThqTMaVhMavl5kiJTpY5ug271K0p0/7VBiOcOiI6gRjKlnSD15MmFcLGCxydHZhCsWj3LnrdfwX73zJQYGSboIDA2SJEmXkLse/Mfx5XyKIWcmsU2JSqPQmACQGdnvz96WoWFxwYyG4YnQ8Hy2TrAcCpl48hWKC69V7L0P8KThkBcGiRR599uemF3RmDB2U8ZxpG87rLctrl6Dm645xYPvMTBI0sVkaJAkSboE3fjTfxzR95T5Y2xQSWnGZiQWXWFa93tGQ4Nh4NqrrqRkGGuFnMg5U4fx/CyE5/9xd08m5ExqwUgileUGiagjKQclJbZiSpcrORZ0YyVHpqZCLYWxFFpkEj3RFvSLx7l+uuANNxznx979CgODJH0TGBokSZIuUVff909i7fiVpJ1NNrrCQGNBI7X9XW9JDnKtXHX8OCUtw0Mqy6sSdRjJ+emuTVxwMuHraK3RdR01ICLIOVPS8qRDXcxZdD3THOTWiAhamTLmCTUadVjQRyUtNrlmo/Btt13Df3H39QYGSfomMjRIkiRdwq574LMRx66i7jzGyR7ysM12mu3rM5UOugYnjmyQCaIsY8Dy5EF7hhMNTwkNF1yDgCdfl6g5U0oBGrEYyWk5+LERlFLIsUOqjUZh3q2xXQrURr/YYWPxGDec6HntLaf5z+95sYFBkvaBoUGSJOkSd81HPxNp/SjTWpm1YPEcTwZcLNEGjm8c4ejajIhKjeV1iRSQ0nOc0fAMoaGlTCVoEXQEXYKcO1okxhpQOvo0UocGZUKb9mxtnSVvPsztp9Z484uv5m/ec5OBQZL2kaFBkiTpMvCy+z8Z8/Xrmbd11nhsX58ltYGrTpxgfTphqAtqLKNBCiACnuuMhtSedjtFKf1yiGNfaLUyjCO564lUSCWztZgwm2ba/Cx5+xFuPJq45/br+E/vMjBI0qXA0CBJknSZeOWHPxVfXb+WSRr29TlKW3DmypPkFOcHQe6daGi1Lq9RPM+PeeHGidR29010E4aouzMbMrUOJIJIJ6hbf8X1x+Adr7ieH7nzRQYGSbqEGBokSZIuI99+3z+IL6zdsq/PcGyaOLpxhFYHyHF+DeXXrqZ87p4IDY0+Fxa1EblQI9F1HTnm1J1zrPWFM+M5vu3VL+VH7rrOwCBJlyBDgyRJ0mXmlp/6/X39BO6qYzPWpxMWiwWlz4y1EpHIAX0ujNG+TmjYuy7x1FkTmcRIzokaQZQJi5oo0ejqNmeOrXHHy2/j3tcVA4MkXcIMDZIkSZeht93/ifiT6cuZrs84sflFpmnk8e4U2/kIs3GLjdhiHomhWweCbtiiSzDkntYaKXdEghpBZnmaoKRMiwUpQY1GtEzXTUgpsVjsUEphY32dE+vdcq3kOMDuIEhSB2RaGykZKBNqWr5fqgtyDJRuyrxCTlNoA10JWhtprZFLkDNEJMbUM28dXTeh23mUm6c7vOtlp/jht7zEwCBJlwFDgyRJ0mXqLR//VHyhniCtHyfXOZM2knIwNpYhIYJu7zJDyZAK88VIyW25MpK2XElJPr+SMiJordH3PY0gIhFRSa2yMe1Z6zvWp5ka0CLRWoNcdmc0NIjKtBSGCBYVUunpS0Adl++fe0qMpDaQCVruGNOEMZflLAYaedhmVre54fiEN912Pf/JG682MEjSZcTQIEmSdBl768c/Gf9nXEdZP8Gx8RGmw2NEN2OnHCEHdG2HcRypeUKeTKGNRB1JQI7d0JATpHLBR827myTaMkBEpY/G8Y11Tp04ytb2Jo1Ei0SkvNwckRopGiUaw7ign86oLFddFgJapZGI3NOVkRLQWmOnJqLfIFqhDZtstG1eenqNO288wX/0pusNDJJ0GTI0SJIkHQBX3ffZmG4cYxY75DonUiZyT17eR2AcR7oEOcEi7c1I2P1nq+ffD6BFkLtCChiHHWaTjmPra0wmk+UUhVaB9qThj8t5C7vbJropAHWYk2OkT0HOmZoKkQtDLK9I5NwRtdHm51gbN/mWF13Ba285w3/w+tMGBkm6jBkaJEmSDoirH/jdYP0k68xZq1uMsZzJUHJPigHGBTnDkDLLyQx5Nw9AirYbDRq5K7RWYaxMusLG2pT12ZRIsDOM5NRRUiyzQtQLniDT6IiuYxjmTGhMS6ZFZagNyoRGpnZr5Gi07XOstU1edtU699x+DT/0KgODJB0EhgZJkqQD5EX3fSbyxgnWUqOLBYs6klKhlELdnacQbbG87gDkFDQCIhMpkwlyCsbFNtN+wskTx+hLZhjn0IK+7xnH5QDIIBPn08ByvSU0gkqJ3VMMFBZ0pL6H1khtQZsPTOs5bj25xtvvuJkfuuOkgUGSDhBDgyRJ0gHzyo//VjzKOtPJGpkRhoFWCmPqGMn0MZyfp8BuaKgUKJkuZepizpHZjONH1+i6TLSRqMtVlDFWUm40Ci11tL3rF6kthzxGkHevYrTcMWfCWKbkGOjmZ1lLO7zk2IS773gxf/1bDQySdBAZGiRJkg6guz7+q/FlTsF0nTRuMY3lyYYFHWMAqZEJ0t7miQSlFPrSccXxY5S2zA/RFrSxUkoPpWOI5SmI1GL3BMOeBmn3GkXKtJapCVIqdG1ksniU265a4+47XsoP3n7MwCBJB5ihQZIk6YB6y4O/EX+5dh1jNGbzR5nSiNZzLhdK1xFpGQ1mkylH16aUFAzzneX1iBTUWukiMcmFxdhY5EKd9nQNWMxZS8trFothIHU9LUHtJtTIRKtM6jZH6ia3XNHz9jtu4QOvOGVgkKRDwNAgSZJ0gL3rv/9n8ejsFFEyXWvkFuS8nKQwxvI6RJ8LORqpVYhGy4mWEpVCqolJgpSCIQXbsWCNdVIMZCo1JShrtMiM40hQmXWZyeJxbr1ywre/4nr+HQODJB0qhgZJkqQD7v0/+7/Fl6YvYphskGLgaN0iopFppJQYG7S2HN7Yl8w4LojSEWVKq5BbUGKk60YiRlKdUDPUnJmnHtKENoxMh22unFRuOFZ426tu4gO3nzAwSNIhZGiQJEk6BN73P/xOfLkcJ8/WyYthOaNh90RDzpmcMxFBGytdvzyd0CKRcwcs11/uzWZouVBzpqbMMAz048DJrvKKa47z2htP8gOv9gSDJB1mhgZJkqRD5Dt+5tdjc+MGatdDmVAjSG1BqeP5Ew4AEZWcgpISDaipY4gJIx0tQxp2mAybXNWNvOKao7zptmv47tuvMDBIkgwNkiRJh837/8fPxNkxsZmnpNkRUulItZLqSCSgZEpJpGEg6kjLmeim1OggTdnaeoiTXfCqq4/wjlfcwPteumZgkCSdZ2iQJEk6pP6zv//p+H8eGzlbjlMnR+j6NXLp2Rl3KKVAbZA7St8x7DzGbPsxjrY5r7n9Zj7y3pcbFyRJT8vQIEmSJH7g578Y/+bhc5zd3KbrMzlgbJmxdEROnOy2uefano++95UGBknSszI0SJIk6Wt87k//ImrpWJtkXnPjGeOCJOk5MzRIkiRJkqSV6fb7ASRJkiRJ0sFhaJAkSZIkSStjaJAkSZIkSStjaJAkSZIkSStjaJAkSZIkSStjaJAkSZIkSStjaJAkSZIkSStjaJAkSZIkSStjaJAkSZIkSStjaJAkSZIkSStjaJAkSZIkSStjaJAkSZIkSStjaJAkSZIkSStjaJAkSZIkSStjaJAkSZIkSStjaJAkSZIkSStjaJAkSZIkSStjaJAkSZIkSStjaJAkSZIkSStjaJAkSZIkSStjaJAkSZIkSStjaJAkSZIkSStjaJAkSZIkSStjaJAkSZIkSStjaJAkSZIkSStjaJAkSZIkSStjaJAkSZIkSStjaJAkSZIkSStjaJAkSZIkSStjaJAkSZIkSStjaJAkSZIkSStjaJAkSZIkSStjaJAkSZIkSStjaJAkSZIkSStjaJAkSZIkSStjaJAkSZIkSStjaJAkSZIkSStjaJAkSZIkSStjaJAkSZIkSStjaJAkSZIkSStjaJAkSZIkSStjaJAkSZIkSStjaJAkSZIkSStjaJAkSZIkSStjaJAkSZIkSStjaJAkSZIkSStjaJAkSZIkSStjaJAkSZIkSStjaJAkSZIkSStjaJAkSZIkSStjaJAkSZIkSStjaJAkSZIkSStjaJAkSZIkSStjaJAkSZIkSStjaJAkSZIkSStjaJAkSZIkSStjaJAkSZIkSStjaJAkSZIkSStjaJAkSZIkSStjaJAkSZIkSStjaJAkSZIkSStjaJAkSZIkSStjaJAkSZIkSStjaJAkSZIkSStjaJAkSZIkSStjaJAkSZIkSStjaJAkSZIkSStjaJAkSZIkSStjaJAkSZIkSStjaJAkSZIkSStjaJAkSZIkSStjaJAkSZIkSStjaJAkSZIkSStjaJAkSZIkSStjaJAkSZIkSStjaJAkSZIkSStjaJAkSZIkSStjaJAkSZIkSStjaJAkSZIkSStjaJAkSZIkSStjaJAkSZIkSStjaJAkSZIkSStjaJAkSZIkSStjaJAkSZIkSStjaJAkSZIkSStjaJAkSZIkSStjaJAkSZIkSStjaJAkSZIkSStjaJAkSZIkSStjaJAkSZIkSStjaJAkSZIkSStjaJAkSZIkSStjaJAkSZIkSStjaJAkSZIkSStjaJAkSZIkSStjaJAkSZIkSStjaJAkSZIkSStjaJAkSZIkSStjaJAkSZIkSStjaJAkSZIkSStjaJAkSZIkSStjaJAkSZIkSStjaJAkSZIkSStjaJAkSZIkSStjaJAkSZIkSStjaJAkSZIkSStjaJAkSZIkSStjaJAkSZIkSStjaJAkSZIkSStjaJAkSZIkSStjaJAkSZIkSStjaJAkSZIkSStjaJAkSZIkSStjaJAkSZIkSStjaJAkSZIkSStjaJAkSZIkSSvz/wMOEctEWXof7gAAAABJRU5ErkJggg==;" vertex="1" parent="1">
                    <mxGeometry x="330" y="275.04" width="180" height="129.92" as="geometry"/>
                </mxCell>
            </root>
        </mxGraphModel>
    </diagram>
</mxfile>